<?xml version="1.0" encoding="UTF-8" standalone="no"?>
<!-- Created with Inkscape (http://www.inkscape.org/) -->

<svg
   xmlns:dc="http://purl.org/dc/elements/1.1/"
   xmlns:cc="http://creativecommons.org/ns#"
   xmlns:rdf="http://www.w3.org/1999/02/22-rdf-syntax-ns#"
   xmlns:svg="http://www.w3.org/2000/svg"
   xmlns="http://www.w3.org/2000/svg"
   xmlns:sodipodi="http://sodipodi.sourceforge.net/DTD/sodipodi-0.dtd"
   xmlns:inkscape="http://www.inkscape.org/namespaces/inkscape"
   width="375.66888mm"
   height="168.73842mm"
   viewBox="0 0 375.66888 168.73842"
   version="1.1"
   id="svg8"
   inkscape:version="0.92.4 (5da689c313, 2019-01-14)"
   sodipodi:docname="loading.svg">
  <defs
     id="defs2" />
  <sodipodi:namedview
     id="base"
     pagecolor="#ffffff"
     bordercolor="#666666"
     borderopacity="1.0"
     inkscape:pageopacity="0.0"
     inkscape:pageshadow="2"
     inkscape:zoom="0.35"
     inkscape:cx="577.2376"
     inkscape:cy="156.03181"
     inkscape:document-units="mm"
     inkscape:current-layer="layer1"
     showgrid="false"
     inkscape:pagecheckerboard="true"
     inkscape:window-width="1366"
     inkscape:window-height="705"
     inkscape:window-x="-8"
     inkscape:window-y="-8"
     inkscape:window-maximized="1" />
  <metadata
     id="metadata5">
    <rdf:RDF>
      <cc:Work
         rdf:about="">
        <dc:format>image/svg+xml</dc:format>
        <dc:type
           rdf:resource="http://purl.org/dc/dcmitype/StillImage" />
        <dc:title />
      </cc:Work>
    </rdf:RDF>
  </metadata>
  <g
     inkscape:label="Layer 1"
     inkscape:groupmode="layer"
     id="layer1"
     transform="translate(89.090689,99.574067)">
    <path
       style="color:#000000;font-style:normal;font-variant:normal;font-weight:normal;font-stretch:normal;font-size:medium;line-height:normal;font-family:sans-serif;font-variant-ligatures:normal;font-variant-position:normal;font-variant-caps:normal;font-variant-numeric:normal;font-variant-alternates:normal;font-feature-settings:normal;text-indent:0;text-align:start;text-decoration:none;text-decoration-line:none;text-decoration-style:solid;text-decoration-color:#000000;letter-spacing:normal;word-spacing:normal;text-transform:none;writing-mode:lr-tb;direction:ltr;text-orientation:mixed;dominant-baseline:auto;baseline-shift:baseline;text-anchor:start;white-space:normal;shape-padding:0;clip-rule:nonzero;display:inline;overflow:visible;visibility:visible;opacity:1;isolation:auto;mix-blend-mode:normal;color-interpolation:sRGB;color-interpolation-filters:linearRGB;solid-color:#000000;solid-opacity:1;vector-effect:none;fill:#fdd243;fill-opacity:0;fill-rule:nonzero;stroke:#fdd243;stroke-width:0.76700002;stroke-linecap:butt;stroke-linejoin:miter;stroke-miterlimit:4;stroke-dasharray:none;stroke-dashoffset:0;stroke-opacity:0.98994976;color-rendering:auto;image-rendering:auto;shape-rendering:auto;text-rendering:auto;enable-background:accumulate"
       d="m 285.95312,-99.570312 c -0.15251,0.01372 -0.27391,0.05547 -0.42968,0.103515 -0.26441,0.08156 -1.21975,0.247872 -1.98242,0.326172 -0.30551,0.03136 -0.75756,0.155313 -1.45508,0.367187 -0.69752,0.211875 -1.61432,0.513009 -2.73242,0.896485 -2.23622,0.766951 -5.27986,1.864716 -8.97461,3.240234 -3.52667,1.312945 -6.12487,2.25375 -7.98047,2.990235 -1.8556,0.736485 -2.96031,1.241537 -3.56641,1.804687 -0.30305,0.281575 -0.49395,0.630985 -0.4707,0.998047 0.0233,0.367062 0.22424,0.672892 0.49219,0.970703 0.53588,0.595623 1.42354,1.228964 2.54101,2.140625 l 2.625,2.142578 -0.75976,0.916016 c -0.56256,0.677884 -12.18707,14.756868 -25.84961,31.308594 -9.79767,11.86958 -16.00819,19.431597 -19.77149,24.101562 -1.88165,2.334983 -3.14968,3.945977 -3.95312,5.015625 -0.40173,0.534824 -0.68642,0.933392 -0.87696,1.226563 -0.0953,0.146585 -0.16717,0.265559 -0.2207,0.371093 -0.0535,0.105535 -0.10547,0.172199 -0.10547,0.353516 0,0.347208 0.0613,0.69971 0.32031,0.941406 0.25907,0.241696 0.58886,0.342349 1.08985,0.486328 1.8935,0.544203 5.83045,2.633022 7.39648,3.929688 1.04483,0.865128 1.7585,1.365519 2.47071,1.421875 0.3561,0.02818 0.70669,-0.09726 0.96679,-0.332031 0.2601,-0.234768 0.44985,-0.556038 0.62891,-0.953125 0.18088,-0.4011 0.60035,-0.989681 1.05078,-1.486328 0.45043,-0.496648 0.96813,-0.914819 1.1875,-1.007813 0.11656,-0.04941 0.13229,-0.0781 0.17773,-0.117187 0.0455,-0.03908 0.0932,-0.08429 0.14844,-0.138672 0.11057,-0.108756 0.24791,-0.252021 0.40625,-0.423828 0.31668,-0.343616 0.71648,-0.799407 1.12891,-1.289063 0.6806,-0.808068 1.0764,-1.304313 1.33008,-1.824219 0.25367,-0.519906 0.33726,-1.028228 0.41601,-1.78125 0.21492,-2.056112 0.71208,-3.213247 1.88867,-4.443359 0.46865,-0.489973 1.26287,-1.053816 2.03907,-1.478516 0.77619,-0.424699 1.57777,-0.699667 1.88671,-0.701172 0.31538,-0.0015 0.55516,-0.140032 0.83204,-0.316406 0.27687,-0.176373 0.56198,-0.410122 0.81054,-0.673828 0.0842,-0.0893 0.24894,-0.284642 0.54102,-0.630859 0.29208,-0.346218 0.69607,-0.827184 1.19726,-1.427735 1.00239,-1.201102 2.39803,-2.8797 4.08594,-4.916015 3.37583,-4.072631 7.91943,-9.571258 12.81641,-15.511719 4.89678,-5.940229 9.35846,-11.351637 12.60156,-15.285156 1.62155,-1.96676 2.937,-3.564812 3.85156,-4.673829 0.45728,-0.554508 0.81478,-0.985708 1.0586,-1.28125 0.075,-0.0909 0.1186,-0.144428 0.17187,-0.208984 0.14932,0.105524 0.34897,0.254895 0.60352,0.451172 0.54315,0.418808 1.28619,1.014398 2.09179,1.681641 0.93845,0.777268 1.73644,1.389825 2.36133,1.816406 0.31245,0.21329 0.58136,0.381066 0.81055,0.5 0.22919,0.118934 0.3962,0.205078 0.63867,0.205078 0.0847,0 0.20523,0.0024 0.34766,-0.05273 0.14243,-0.05518 0.27399,-0.172233 0.36328,-0.308594 0.17858,-0.272723 0.28327,-0.640681 0.4375,-1.333985 0.30845,-1.386607 0.74849,-4.063745 1.61719,-9.359374 0.96939,-5.909256 1.83136,-11.947659 1.92187,-13.574219 0.0854,-1.532449 0.23256,-3.284305 0.3125,-3.802735 0.0388,-0.251129 0.0679,-0.445938 0.0801,-0.611328 0.0122,-0.16539 0.0319,-0.309108 -0.0762,-0.501953 -0.0541,-0.09642 -0.16004,-0.189614 -0.26563,-0.228515 -0.10558,-0.0389 -0.19718,-0.03811 -0.27344,-0.03125 z"
       id="path911" />
    <path
       style="color:#000000;font-style:normal;font-variant:normal;font-weight:normal;font-stretch:normal;font-size:medium;line-height:normal;font-family:sans-serif;font-variant-ligatures:normal;font-variant-position:normal;font-variant-caps:normal;font-variant-numeric:normal;font-variant-alternates:normal;font-feature-settings:normal;text-indent:0;text-align:start;text-decoration:none;text-decoration-line:none;text-decoration-style:solid;text-decoration-color:#000000;letter-spacing:normal;word-spacing:normal;text-transform:none;writing-mode:lr-tb;direction:ltr;text-orientation:mixed;dominant-baseline:auto;baseline-shift:baseline;text-anchor:start;white-space:normal;shape-padding:0;clip-rule:nonzero;display:inline;overflow:visible;visibility:visible;opacity:1;isolation:auto;mix-blend-mode:normal;color-interpolation:sRGB;color-interpolation-filters:linearRGB;solid-color:#000000;solid-opacity:1;vector-effect:none;fill:#fdd243;fill-opacity:0;fill-rule:nonzero;stroke:#fdd243;stroke-width:0.76700002;stroke-linecap:butt;stroke-linejoin:miter;stroke-miterlimit:4;stroke-dasharray:none;stroke-dashoffset:0;stroke-opacity:0.98994976;color-rendering:auto;image-rendering:auto;shape-rendering:auto;text-rendering:auto;enable-background:accumulate"
       d="m 91.726562,-72.265625 c -0.196714,0 -0.386865,0.09444 -0.5625,0.240234 -0.175634,0.1458 -0.367507,0.355977 -0.628906,0.681641 -0.522796,0.651327 -1.316364,1.769309 -2.621094,3.708984 -2.609459,3.879351 -7.258976,11.036394 -15.767578,24.173828 -6.03553,9.318982 -10.670626,16.537058 -13.798828,21.480469 -1.564101,2.471706 -2.751031,4.373849 -3.548828,5.689453 -0.398899,0.657803 -0.701655,1.168034 -0.90625,1.533204 -0.102297,0.182584 -0.180185,0.327954 -0.236328,0.443359 -0.02807,0.0577 -0.04933,0.106825 -0.06836,0.15625 -0.01904,0.04943 -0.04492,0.07714 -0.04492,0.208984 0,0.32194 0.125538,0.623488 0.30664,0.955078 0.181102,0.33159 0.42948,0.679602 0.720703,1.001953 0.473173,0.523749 1.270739,1.653132 1.708985,2.429688 0.321609,0.5698534 0.573203,0.9587392 0.84375,1.234375 0.270547,0.2756358 0.603443,0.4316406 0.933594,0.4316406 0.157183,0 0.35091,0.013872 0.558593,-0.1191406 0.207684,-0.1330126 0.308556,-0.3639956 0.363282,-0.6152344 0.109451,-0.5024774 0.125883,-1.3020991 0.173828,-2.9042966 0.04504,-1.505299 0.08775,-2.337558 0.197265,-2.921875 0.109512,-0.584317 0.277829,-0.940218 0.632813,-1.583985 0.862126,-1.563489 2.27446,-2.690592 4.033203,-3.21289 1.776305,-0.527504 2.47403,-0.484125 4.298828,0.267578 0.904304,0.372516 1.562908,0.588918 2.183594,0.648437 0.620685,0.05952 1.181927,-0.05219 1.826172,-0.285156 0.585324,-0.211651 1.071062,-0.837611 2.470703,-2.855469 1.39964,-2.017857 3.651329,-5.459604 7.449219,-11.322265 3.772196,-5.823013 6.005662,-9.234904 7.318359,-11.128907 0.656348,-0.947001 1.087411,-1.517774 1.341797,-1.798828 0.01297,-0.01433 0.0093,-0.0068 0.02148,-0.01953 0.105685,0.191114 0.258708,0.46773 0.648438,1.177735 0.48932,0.891437 1.178658,2.148897 2.017578,3.679687 1.677839,3.06158 3.953338,7.218389 6.421876,11.728516 5.19841,9.497739 7.56454,13.963708 8.96485,15.724609 0.35007,0.440225 0.63811,0.725504 0.97265,0.873047 0.33454,0.147543 0.74197,0.06165 0.99219,-0.154297 0.50043,-0.431899 0.74808,-1.164551 1.20508,-2.042969 1.6005,-3.076327 3.66636,-4.636283 6.59961,-5.02539 0.58987,-0.07825 0.94834,-0.128269 1.25,-0.294922 0.15082,-0.08333 0.28913,-0.220178 0.35937,-0.378907 0.0702,-0.158728 0.0789,-0.313748 0.0762,-0.460937 -0.003,-0.162857 -0.0283,-0.1503 -0.0449,-0.193359 -0.0167,-0.04306 -0.0369,-0.09002 -0.0625,-0.146485 -0.0511,-0.112925 -0.12302,-0.262041 -0.21679,-0.451172 -0.18755,-0.378261 -0.46081,-0.911044 -0.8125,-1.585937 -0.70339,-1.349787 -1.71877,-3.263758 -2.97071,-5.59961 -2.50387,-4.671703 -5.9551,-11.03569 -9.75,-17.966796 -6.49731,-11.866904 -9.956193,-18.165843 -11.880861,-21.507813 -0.962333,-1.670985 -1.537036,-2.599338 -1.935546,-3.136719 -0.199256,-0.26869 -0.353253,-0.442114 -0.515625,-0.566406 -0.162373,-0.124292 -0.363749,-0.189453 -0.517579,-0.189453 z"
       id="path907" />
    <path
       style="color:#000000;font-style:normal;font-variant:normal;font-weight:normal;font-stretch:normal;font-size:medium;line-height:normal;font-family:sans-serif;font-variant-ligatures:normal;font-variant-position:normal;font-variant-caps:normal;font-variant-numeric:normal;font-variant-alternates:normal;font-feature-settings:normal;text-indent:0;text-align:start;text-decoration:none;text-decoration-line:none;text-decoration-style:solid;text-decoration-color:#000000;letter-spacing:normal;word-spacing:normal;text-transform:none;writing-mode:lr-tb;direction:ltr;text-orientation:mixed;dominant-baseline:auto;baseline-shift:baseline;text-anchor:start;white-space:normal;shape-padding:0;clip-rule:nonzero;display:inline;overflow:visible;visibility:visible;opacity:1;isolation:auto;mix-blend-mode:normal;color-interpolation:sRGB;color-interpolation-filters:linearRGB;solid-color:#000000;solid-opacity:1;vector-effect:none;fill:#fdd243;fill-opacity:0;fill-rule:nonzero;stroke:#fdd243;stroke-width:0.76700002;stroke-linecap:butt;stroke-linejoin:miter;stroke-miterlimit:4;stroke-dasharray:none;stroke-dashoffset:0;stroke-opacity:0.98994976;color-rendering:auto;image-rendering:auto;shape-rendering:auto;text-rendering:auto;enable-background:accumulate"
       d="m 13.542969,-47.115234 -1.166016,0.107422 c -0.192578,0.01772 -0.33704,0.08941 -0.535156,0.197265 -0.198116,0.107855 -0.437019,0.260786 -0.740235,0.470703 -0.60643,0.419835 -1.4639019,1.068966 -2.6777339,2.029297 -2.427664,1.920663 -6.276653,5.08394 -12.3222656,10.101563 -8.5576305,7.102487 -12.6563235,10.455823 -14.3437505,12.253906 -0.421856,0.449521 -0.698014,0.801152 -0.859374,1.128906 -0.161361,0.327754 -0.196245,0.690229 -0.04297,0.972656 0.153276,0.282428 0.407321,0.431648 0.675781,0.564454 0.26846,0.132805 0.575058,0.248959 0.902344,0.390624 0.843966,0.365366 1.524954,0.56018 2.351562,0.527344 0.826608,-0.03284 1.772782,-0.275156 3.25,-0.724609 3.6734294,-1.117651 6.3098449,-1.208942 11.42773462,-0.384766 0.45865686,0.07386 0.90674167,0.05351 1.4296875,-0.24414 0.52294588,-0.297647 1.17153888,-0.831928 2.34374998,-1.814453 0.7840896,-0.657234 1.4285519,-1.154099 1.8730469,-1.453126 0.1544241,-0.103886 0.2443056,-0.148606 0.3417969,-0.201171 0.0073,0.02245 0.01166,0.03396 0.019531,0.05859 0.068169,0.213353 0.1587082,0.507314 0.2617188,0.857422 0.206021,0.700218 0.4675679,1.627723 0.734375,2.609375 l 1,3.677735 1.796875,1.753906 c 0.6867471,0.670061 1.5819393,1.726285 2.2929693,2.662109 0.355514,0.467912 0.666425,0.907188 0.882812,1.25 0.108194,0.171406 0.191807,0.318674 0.244141,0.4257815 0.05233,0.1071072 0.05664,0.1999552 0.05664,0.1171875 0,0.1189438 0.01524,0.1208891 0.02539,0.15625 0.01015,0.035361 0.02245,0.070918 0.03711,0.1132812 0.02931,0.084726 0.07057,0.1915921 0.119141,0.3164063 0.09714,0.2496284 0.22747,0.5724882 0.373047,0.9121094 0.213024,0.4969449 0.383895,0.8347166 0.623047,1.0859375 0.239151,0.2512208 0.577024,0.3671875 0.894531,0.3671875 0.34067,0 0.704785,-0.1592295 0.976562,-0.4785157 0.271778,-0.3192861 0.520074,-0.7807619 0.882813,-1.5175781 0.547268,-1.1116748 1.551935,-2.4565941 2.904297,-3.8652341 0.805308,-0.838825 1.33616,-1.435243 1.683594,-1.921875 0.347433,-0.486632 0.521484,-0.887789 0.529296,-1.28711 0.0019,-0.100497 -0.0105,-0.145178 -0.02539,-0.230468 -0.01489,-0.08529 -0.03507,-0.190054 -0.0625,-0.31836 -0.05486,-0.256611 -0.135098,-0.604137 -0.238281,-1.033203 -0.206368,-0.858131 -0.504184,-2.045004 -0.873047,-3.476562 -0.737727,-2.863116 -1.758053,-6.704351 -2.88086,-10.833985 z"
       id="path903" />
    <path
       style="color:#000000;font-style:normal;font-variant:normal;font-weight:normal;font-stretch:normal;font-size:medium;line-height:normal;font-family:sans-serif;font-variant-ligatures:normal;font-variant-position:normal;font-variant-caps:normal;font-variant-numeric:normal;font-variant-alternates:normal;font-feature-settings:normal;text-indent:0;text-align:start;text-decoration:none;text-decoration-line:none;text-decoration-style:solid;text-decoration-color:#000000;letter-spacing:normal;word-spacing:normal;text-transform:none;writing-mode:lr-tb;direction:ltr;text-orientation:mixed;dominant-baseline:auto;baseline-shift:baseline;text-anchor:start;white-space:normal;shape-padding:0;clip-rule:nonzero;display:inline;overflow:visible;visibility:visible;opacity:1;isolation:auto;mix-blend-mode:normal;color-interpolation:sRGB;color-interpolation-filters:linearRGB;solid-color:#000000;solid-opacity:1;vector-effect:none;fill:#fdd243;fill-opacity:0;fill-rule:nonzero;stroke:#fdd243;stroke-width:0.76700002;stroke-linecap:butt;stroke-linejoin:miter;stroke-miterlimit:4;stroke-dasharray:none;stroke-dashoffset:0;stroke-opacity:0.98994976;color-rendering:auto;image-rendering:auto;shape-rendering:auto;text-rendering:auto;enable-background:accumulate"
       d="m 125.36914,-10.796878 c -0.2108,0 -0.48754,0.07108 -0.71289,0.259766 -0.22535,0.188682 -0.42854,0.463855 -0.70313,0.9082028 -0.54917,0.8886963 -1.37044,2.4785076 -2.86132,5.4101562 -0.89201,1.7540107 -1.70183,3.40055063 -2.29102,4.64453125 -0.29459,0.62199035 -0.53373,1.14290255 -0.70117,1.52929685 -0.0837,0.1931972 -0.14999,0.3522727 -0.19727,0.4785157 -0.0236,0.063121 -0.0433,0.1183406 -0.0586,0.1699218 -0.0152,0.051581 -0.0312,0.083142 -0.0312,0.1894532 0,0.1277482 0.0187,0.1237592 0.0273,0.1484374 0.009,0.024678 0.0157,0.045589 0.0254,0.068359 0.0194,0.045541 0.0444,0.099625 0.0762,0.1660156 0.0636,0.1327821 0.15571,0.3146537 0.27539,0.5488282 0.23935,0.4683489 0.5893,1.1401165 1.04101,1.9941406 0.90343,1.7080482 2.20936,4.1466442 3.82031,7.1347664 3.22192,5.976242 7.6668,14.152557 12.55469,23.089843 6.85652,12.53684 11.32786,20.660867 14.13477,25.654297 1.40345,2.496716 2.38903,4.211322 3.05273,5.306641 0.33186,0.547659 0.58227,0.93909 0.76953,1.205078 0.0936,0.132994 0.17004,0.234696 0.24414,0.316406 0.037,0.04085 0.073,0.07721 0.12305,0.115235 0.0501,0.03803 0.11185,0.09961 0.2793,0.09961 0.0768,0 0.1392,0.02094 0.16015,0.03125 0.0207,0.10213 0.0287,0.207465 0.10352,0.292969 0.11263,0.128674 0.28451,0.194258 0.43164,0.199218 0.29427,0.0099 0.52776,-0.133308 0.74414,-0.341796 -0.002,0.0019 0.10102,-0.06942 0.22461,-0.119141 0.1236,-0.04972 0.2742,-0.0923 0.39649,-0.111328 0.2129,-0.03305 0.19956,-0.08195 0.24609,-0.119141 0.0465,-0.03719 0.0928,-0.07942 0.14648,-0.130859 0.10732,-0.102883 0.24365,-0.243191 0.41211,-0.423828 0.33693,-0.361275 0.80011,-0.881927 1.37696,-1.541016 1.15368,-1.318177 2.7554,-3.190197 4.65429,-5.4375 3.7978,-4.494606 8.78566,-10.483523 13.74805,-16.494141 4.96239,-6.010617 9.89833,-12.043117 13.5957,-16.626953 1.84869,-2.291917 3.38859,-4.222203 4.4668,-5.607421 0.5391,-0.69261 0.96165,-1.247596 1.25391,-1.648438 0.14612,-0.200421 0.26047,-0.362716 0.34179,-0.488281 0.0407,-0.06278 0.0717,-0.115293 0.0996,-0.167969 0.0279,-0.05268 0.0754,-0.05202 0.0742,-0.253906 -0.002,-0.334513 -0.17561,-0.666429 -0.46875,-0.9375 -0.29314,-0.271071 -0.70917,-0.532382 -1.32226,-0.869141 -2.02383,-1.111579 -5.19634,-3.714823 -6.28711,-5.128906 -0.37655,-0.488142 -0.6673,-0.817701 -0.98829,-1.042969 -0.32098,-0.225268 -0.67787,-0.319589 -1.04492,-0.322266 -0.3044,-0.0024 -0.63046,0.157543 -1.07812,0.558594 -0.44767,0.401051 -1.0792,1.07596 -2.09961,2.248047 -2.04082,2.344175 -5.62315,6.672461 -12.18945,14.640625 -5.33226,6.470647 -8.91594,10.775948 -11.1875,13.427734 -1.13579,1.325894 -1.94358,2.239608 -2.47266,2.796876 -0.20515,0.21608 -0.33085,0.333007 -0.44922,0.441406 -0.0497,-0.08809 -0.0912,-0.161964 -0.16016,-0.285156 -0.22187,-0.396587 -0.54023,-0.970808 -0.94531,-1.703126 -0.81015,-1.464634 -1.96535,-3.560675 -3.37891,-6.132812 -2.8271,-5.144274 -6.69,-12.192188 -10.90624,-19.902344 -7.14692,-13.0693737 -10.99129,-20.078759 -13.13477,-23.8281252 -1.07174,-1.874683 -1.71625,-2.9316115 -2.15039,-3.5429687 -0.21707,-0.3056781 -0.37845,-0.5008351 -0.54102,-0.6406241 -0.16257,-0.13979 -0.36442,-0.226563 -0.53906,-0.226564 z"
       id="path839" />
    <path
       id="path833"
       style="color:#000000;font-style:normal;font-variant:normal;font-weight:normal;font-stretch:normal;font-size:medium;line-height:normal;font-family:sans-serif;font-variant-ligatures:normal;font-variant-position:normal;font-variant-caps:normal;font-variant-numeric:normal;font-variant-alternates:normal;font-feature-settings:normal;text-indent:0;text-align:start;text-decoration:none;text-decoration-line:none;text-decoration-style:solid;text-decoration-color:#000000;letter-spacing:normal;word-spacing:normal;text-transform:none;writing-mode:lr-tb;direction:ltr;text-orientation:mixed;dominant-baseline:auto;baseline-shift:baseline;text-anchor:start;white-space:normal;shape-padding:0;clip-rule:nonzero;display:inline;overflow:visible;visibility:visible;opacity:1;isolation:auto;mix-blend-mode:normal;color-interpolation:sRGB;color-interpolation-filters:linearRGB;solid-color:#000000;solid-opacity:1;vector-effect:none;fill:#fdd243;fill-opacity:0;fill-rule:nonzero;stroke:#fdd243;stroke-width:0.76700002;stroke-linecap:butt;stroke-linejoin:miter;stroke-miterlimit:4;stroke-dasharray:none;stroke-dashoffset:0;stroke-opacity:0.98994976;color-rendering:auto;image-rendering:auto;shape-rendering:auto;text-rendering:auto;enable-background:accumulate"
       d="m 54.058594,-8.9628936 c 0.234735,0 0.284205,0.042016 0.263672,0.021484 -0.02053,-0.020531 0.01953,0.026962 0.01953,0.2617187 0,0.2347353 -0.04007,0.2822578 -0.01953,0.2617187 0.02054,-0.020539 -0.02891,0.021484 -0.263672,0.021484 -0.234736,0 -0.282253,-0.042016 -0.261719,-0.021484 0.02053,0.020532 -0.02148,-0.026974 -0.02148,-0.2617187 0,-0.2347348 0.04201,-0.2822518 0.02148,-0.2617187 -0.02053,0.020533 0.02696,-0.021484 0.261719,-0.021484 z m 0,-0.7675782 c -0.298669,0 -0.584162,0.025549 -0.804688,0.2460938 -0.220526,0.2205445 -0.24414,0.5060663 -0.24414,0.8046875 0,0.2986585 0.02555,0.5841675 0.246093,0.8046875 0.220546,0.22052 0.504113,0.2460938 0.802735,0.2460938 0.298662,0 0.584155,-0.025555 0.804687,-0.2460938 0.220533,-0.2205388 0.246094,-0.5060658 0.246094,-0.8046875 0,-0.2986681 -0.02555,-0.584162 -0.246094,-0.8046875 -0.220544,-0.2205255 -0.506066,-0.2460938 -0.804687,-0.2460938 z M 34.441406,-11.132815 c 1.614746,-0.261429 3.289455,-0.225079 4.931641,0.162109 4.514988,1.0645018 8.134214,4.3175357 9.414062,8.4296874 C 50.690975,3.5761523 46.192957,10.413062 39.234375,11.853516 30.255793,13.712152 21.836181,5.8836733 24.021484,-2.1894531 25.292991,-6.8867915 29.59717,-10.348526 34.441406,-11.132812 Z m 127.578124,-0.123047 c 3.01413,-0.26808 6.12488,0.503856 8.80274,2.365234 3.06396,2.1297716 5.14469,5.853775 5.16015,9.15429688 C 176.00778,5.569556 171.5974,10.675425 165.90625,11.853516 161.4825,12.769271 157.16319,11.473066 153.91211,8.2519531 149.23759,3.6204524 149.19025,-2.7586107 153.79102,-7.375 c 2.29546,-2.3032782 5.21438,-3.61278 8.22851,-3.880859 z m -229.552733,-0.05469 c 1.064971,-0.01698 2.139835,0.09655 3.205078,0.347656 5.362305,1.2639995 9.420828,5.6660535 9.789063,10.53515662 0.415522,5.49392468 -3.610414,10.62548038 -9.625,12.16992238 -2.913707,0.748182 -6.201135,0.371683 -9.160157,-1.064454 -1.61354,-0.7831257 -4.287862,-3.220869 -5.134765,-4.6660152 -1.603787,-2.7366652 -2.008468,-5.79231101 -1.152344,-8.5429688 0.694637,-2.2319291 1.56301,-3.5969788 3.326172,-5.2265625 2.455678,-2.2697315 5.557039,-3.5018055 8.751953,-3.5527345 z m 274.308593,-0.01758 c 6.80925,0.234508 12.78764,5.982174 12.3125,12.6230469 -0.34645,4.841603 -4.68116,9.4616071 -9.98047,10.5585941 -4.23725,0.877145 -8.55201,-0.33721 -11.78125,-3.3203129 C 195.56247,6.9039236 194.69483,5.5391498 194,3.3066406 c -1.88823,-6.066828 2.74125,-12.9189477 9.82227,-14.3847656 0.99026,-0.204993 1.98037,-0.283501 2.95312,-0.25 z m -40.71289,23.931641 -0.0781,0.0078 h 0.0391 z m -4.11133,-24.617188 c -3.19078,0.283837 -6.28043,1.664764 -8.70312,4.0957032 -4.85644,4.8729247 -4.80228,11.8329166 0.125,16.7148438 3.42042,3.388895 8.02658,4.771896 12.68945,3.806641 6.04265,-1.250852 10.71488,-6.6146464 10.6875,-12.34375038 -0.0169,-3.61470212 -2.2191,-7.50552242 -5.49023,-9.77929682 -2.82507,-1.9636998 -6.11781,-2.7779768 -9.3086,-2.4941408 z m -125.029295,-0.05078 c -6.130967,-0.192609 -12.053791,3.8115711 -13.640625,9.673828 -2.346991,8.6704455 6.618271,16.958873 16.109375,14.994141 7.366164,-1.524825 12.182054,-8.7762312 10.128906,-15.3730472 -1.367416,-4.3935084 -5.205369,-7.8256928 -9.970703,-8.9492188 -0.872321,-0.205673 -1.751101,-0.318188 -2.626953,-0.345703 z m -104.466797,-0.01367 c -3.383333,0.05529 -6.670992,1.363258 -9.261719,3.7578125 -1.830698,1.6920043 -2.813726,3.236252 -3.537109,5.5605469 -0.924516,2.97039814 -0.476924,6.2547462 1.224609,9.1582031 0.997757,1.7025597 3.606918,4.0689085 5.460938,4.9687505 3.112098,1.510431 6.577653,1.915233 9.685547,1.117187 6.331993,-1.625946 10.645496,-7.0701417 10.199218,-12.97070312 -0.397365,-5.25429688 -4.71465,-9.88748188 -10.378906,-11.22265588 -1.126947,-0.265647 -2.2648,-0.38757 -3.392578,-0.369141 z m 274.345702,-0.01953 c -1.03221,-0.03457 -2.08168,0.04999 -3.13281,0.267578 -7.48076,1.548567 -12.44202,8.8055283 -10.40039,15.3652342 0.72357,2.3248688 1.70778,3.8688404 3.53906,5.5605469 3.40368,3.1442479 7.98032,4.4345289 12.45703,3.5078129 5.63346,-1.166158 10.21377,-5.9983017 10.58985,-11.2539066 0.50984,-7.1259747 -5.82725,-13.2052864 -13.05274,-13.4472654 z m 9.93164,-3.53125 c 0.23474,0 0.28226,0.04007 0.26172,0.01953 -0.0205,-0.02054 0.0215,0.02892 0.0215,0.263672 0,0.234734 -0.042,0.282251 -0.0215,0.261719 0.0205,-0.02053 -0.027,0.02148 -0.26172,0.02148 -0.23473,0 -0.28225,-0.04201 -0.26172,-0.02148 0.0205,0.02053 -0.0215,-0.02696 -0.0215,-0.261719 0,-0.234721 0.042,-0.284204 0.0215,-0.263672 -0.0205,0.02053 0.027,-0.01953 0.26172,-0.01953 z m -98.23828,0 c 0.91771,0 1.4924,0.143801 1.80078,0.380859 0.30839,0.237058 0.45117,0.588731 0.45117,1.259766 0,-0.01755 -0.0236,0.140763 -0.10351,0.36914 -0.0799,0.228378 -0.20784,0.548786 -0.38867,0.964844 -0.36166,0.832117 -0.93439,2.051987 -1.76758,3.7597658 -1.66638,3.4155575 -4.37524,8.78271262 -8.53125,16.9335937 -2.9783,5.8411425 -5.73056,11.2029465 -7.76758,15.1367185 -1.01851,1.966887 -1.85882,3.576133 -2.457031,4.708985 -0.299106,0.566425 -0.537012,1.014495 -0.707031,1.326172 -0.08501,0.155838 -0.154803,0.277317 -0.203126,0.361328 -0.02416,0.042 -0.0421,0.07543 -0.05469,0.0957 -0.04257,0.04777 -0.226698,0.159631 -0.496094,0.228515 -0.270271,0.06911 -0.616643,0.110324 -0.972656,0.115235 -0.712025,0.0098 -1.47767,-0.156696 -1.755859,-0.351563 -0.197798,-0.138536 -0.268837,-0.221897 -0.330078,-0.396484 -0.06124,-0.174587 -0.0949,-0.472396 -0.0918,-0.955078 0.0031,-0.475363 0.100888,-0.944165 0.53125,-1.962891 0.430361,-1.018726 1.18814,-2.556236 2.476562,-5.083984 L 101.25781,15.121094 94.121094,0.84960938 C 90.676272,-6.0390686 88.804505,-9.8353513 87.884766,-12.001953 c -0.45987,-1.083301 -0.678226,-1.760909 -0.742188,-2.177735 -0.06396,-0.416825 -0.01246,-0.533348 0.107422,-0.71289 0.09214,-0.13799 0.336918,-0.319401 0.679688,-0.455078 0.342769,-0.135677 0.774069,-0.234087 1.205078,-0.277344 0.431008,-0.04326 0.864422,-0.03204 1.210937,0.0332 0.346515,0.06524 0.592129,0.195613 0.679688,0.296875 -0.03181,-0.03678 0.0023,0.0054 0.0332,0.05664 0.03089,0.05125 0.07434,0.124931 0.126953,0.21875 0.105225,0.187638 0.249945,0.454081 0.427734,0.787109 0.355579,0.666057 0.844526,1.601108 1.431641,2.736328 1.17423,2.2704408 2.740613,5.3401141 4.412109,8.6582034 1.672341,3.3197532 3.198182,6.3296299 4.312502,8.5058594 0.55716,1.0881147 1.01258,1.9676409 1.33008,2.5742187 0.15875,0.3032889 0.28156,0.5384973 0.36914,0.6992187 0.0438,0.080361 0.0781,0.1409975 0.10547,0.1875 0.0137,0.023251 0.0246,0.042417 0.041,0.066406 0.008,0.011995 0.016,0.023369 0.043,0.052734 0.007,0.00734 0.0146,0.01594 0.0274,0.027344 0.0127,0.011404 0.0602,0.04474 0.0605,0.044922 3.1e-4,1.824e-4 0.16775,0.052717 0.16797,0.052734 2.2e-4,1.72e-5 0.30846,-0.1209453 0.3086,-0.1210938 h 0.002 c 1.4e-4,-1.488e-4 0.0258,-0.033372 0.0312,-0.041016 0.005,-0.00764 0.009,-0.011689 0.0117,-0.015625 0.005,-0.00787 0.007,-0.011408 0.01,-0.015625 0.005,-0.00843 0.01,-0.015937 0.0137,-0.023437 0.008,-0.015001 0.0171,-0.033733 0.0293,-0.056641 0.0244,-0.045816 0.0578,-0.109438 0.10157,-0.1933594 0.0875,-0.1678428 0.21395,-0.4121204 0.375,-0.7246094 0.32209,-0.624978 0.78314,-1.5228593 1.3496,-2.6289062 1.13293,-2.2120939 2.68769,-5.25481892 4.38868,-8.5917969 1.70058,-3.3361611 3.27704,-6.4054966 4.44726,-8.6640625 0.58511,-1.129283 1.06808,-2.056642 1.41406,-2.710937 0.173,-0.327148 0.31311,-0.586457 0.41211,-0.767579 0.0495,-0.09056 0.0893,-0.16056 0.11719,-0.208984 0.0279,-0.04842 0.0705,-0.102139 0.0234,-0.04492 -0.0374,0.04537 -0.0112,0.007 0.0645,-0.02148 0.0757,-0.02848 0.19372,-0.05949 0.33985,-0.08594 0.29226,-0.0529 0.6944,-0.08594 1.14062,-0.08594 z m -155.310546,0 c 0.335039,0 0.698556,0.04147 1.005859,0.109375 0.307303,0.06791 0.56622,0.17465 0.654297,0.236328 l 0.427734,0.300781 V 0.38671875 15.757812 l -0.427734,0.300782 c -0.309585,0.216842 -1.085307,0.379536 -1.822266,0.357422 -0.736958,-0.02211 -1.445973,-0.250654 -1.626953,-0.431641 -0.114796,-0.114795 -0.13781,-0.11295 -0.201172,-0.402344 -0.06336,-0.289393 -0.116546,-0.838728 -0.15039,-1.83789 -0.06769,-1.998324 -0.07031,-5.807858 -0.07031,-13.2363285 V -14.544922 l 0.542969,-0.542969 c 0.232727,-0.232728 0.402943,-0.349545 0.634766,-0.427734 0.231822,-0.07819 0.545997,-0.113281 1.033203,-0.113281 z m 116.265625,-0.228516 c 1.835992,0.06286 2.908331,0.212763 3.443359,0.5 0.267514,0.143619 0.411567,0.301523 0.523438,0.542969 0.11187,0.241446 0.178787,0.580419 0.208984,1.039062 0.03101,0.47059 0.01541,0.766245 -0.04102,0.96875 -0.05642,0.202506 -0.144888,0.340211 -0.351562,0.546875 -0.257923,0.257923 -0.313909,0.317109 -0.664063,0.365235 -0.350153,0.04813 -0.996658,0.02619 -2.189453,-0.04492 -1.435677,-0.08566 -3.148234,-0.05298 -3.964844,0.101562 -3.18913,0.604138 -6.17895,2.7074512 -7.583984,5.369141 l -0.753906,1.4257812 -0.06641,9.9609376 c -0.01847,2.7120668 -0.05158,5.2432522 -0.08789,7.1347652 -0.01815,0.945757 -0.03741,1.731575 -0.05664,2.298828 -0.0096,0.283627 -0.01807,0.512944 -0.02734,0.677735 -0.0093,0.16479 -0.03128,0.305235 -0.01953,0.253906 -0.104848,0.457685 -0.25551,0.688217 -0.537109,0.855469 -0.281599,0.167252 -0.753659,0.265625 -1.478516,0.265625 -0.9604,0 -1.453116,-0.13906 -1.804687,-0.423828 l -0.48828,-0.39453 V 0.38671875 -14.810547 l 0.488281,-0.394531 c 0.335367,-0.271545 0.850815,-0.423828 1.703125,-0.423828 0.81089,0 1.361527,0.186052 1.707031,0.501953 0.345504,0.3159 0.535156,0.789008 0.535156,1.513672 v 1.867187 l 1.84961,-1.414062 c 2.790071,-2.13037 5.331193,-2.845304 9.65625,-2.697266 z m -85.3320315,-0.03125 c 1.9611536,0.02264 3.9256455,0.193087 5.1484375,0.50586 5.2142124,1.333564 8.7767269,4.638816 10.2421875,9.4804682 0.280654,0.9272822 0.4097362,3.3112452 0.4960935,11.234375 0.05405,4.9549708 0.07886,7.4615868 0.02149,8.7910158 -0.028689,0.664714 -0.080376,1.031327 -0.1425785,1.242187 -0.062203,0.210861 -0.1207204,0.282203 -0.2597656,0.458985 -0.23087,0.29351 -0.3530617,0.401964 -0.5488281,0.474609 -0.1957665,0.07265 -0.5233762,0.105469 -1.109375,0.105469 -0.3705412,0 -0.7576243,-0.04055 -1.078125,-0.105469 -0.3205058,-0.06492 -0.5826058,-0.170464 -0.6543019,-0.2207 h -0.00195 C 6.1045593,15.989936 6.1016362,16.006478 6.046875,15.859375 5.9921138,15.712272 5.9315483,15.385401 5.8886719,14.773438 5.802919,13.549511 5.7686333,11.191995 5.7089844,6.5878906 5.6080153,-1.1992072 5.5239277,-3.0686908 5.1269531,-4.3027344 4.147322,-7.348088 1.696467,-9.8793402 -1.40625,-11.070312 c -2.0001854,-0.767784 -5.8528732,-1.015464 -7.9902344,-0.519532 -3.5440646,0.822289 -6.6745216,3.0537928 -8.0234376,5.7910159 -0.297388,0.6034728 -0.480834,1.0818011 -0.568359,2.5566406 -0.08753,1.4748395 -0.110543,4.01302343 -0.146485,8.9609375 -0.0359,4.949056 -0.05761,7.488695 -0.136718,8.820312 -0.03956,0.665809 -0.09808,1.028644 -0.15625,1.207032 -0.05817,0.178388 -0.07583,0.177666 -0.199219,0.28125 -0.260226,0.218448 -1.022935,0.412924 -1.767578,0.40039 -0.744643,-0.01253 -1.475607,-0.241204 -1.677735,-0.443359 -0.114809,-0.114814 -0.135803,-0.11177 -0.199218,-0.402344 -0.06341,-0.290574 -0.116549,-0.842122 -0.150391,-1.845703 -0.06768,-2.007161 -0.07227,-5.8332828 -0.07227,-13.29687488 0,-6.20430882 0.01702,-10.04792392 0.07031,-12.38281212 0.02665,-1.167445 0.06345,-1.959604 0.109375,-2.470703 0.02296,-0.25555 0.04936,-0.440888 0.07422,-0.560547 0.02486,-0.11966 0.06123,-0.175052 0.0332,-0.136719 0.04319,-0.05907 0.23758,-0.195709 0.529297,-0.291016 0.291716,-0.09531 0.668777,-0.164117 1.058593,-0.193359 0.779633,-0.05848 1.628853,0.08023 1.929688,0.277344 0.257433,0.168682 0.334979,0.247416 0.398437,0.416015 0.06346,0.1686 0.09766,0.485564 0.09766,1.042969 v 2.115234 l 1.482421,-1.130859 c 1.292136,-0.985312 3.946215,-2.21229 5.705079,-2.626953 1.2039119,-0.283818 3.1618929,-0.409364 5.1230465,-0.386719 z m 212.2148425,-0.0078 c 3.79171,0 6.27467,0.537721 9.29883,2.007812 4.0728,1.979923 6.97373,5.3632262 8.22852,9.5859376 0.68342,2.2998355 0.63834,7.3369662 -0.0879,9.6425782 -1.69317,5.3761622 -6.03192,9.3248222 -11.91015,10.8105472 -2.3869,0.603281 -8.04603,0.675657 -10.55078,0.130859 -6.16039,-1.339773 -11.01112,-5.718324 -12.48047,-11.2148438 -0.48172,-1.8020126 -0.56032,-6.8922657 -0.13281,-8.7460937 1.01773,-4.41346 4.06218,-8.1388695 8.36523,-10.2148435 3.00711,-1.450791 5.55099,-2.001953 9.26953,-2.001953 z m -169.873046,0 c 3.685969,0 6.272225,0.554304 9.166016,1.957031 2.791818,1.353301 4.840993,3.106505 6.345703,5.4160155 1.168945,1.7941611 1.824936,3.2483955 2.197266,5.6308594 0.372329,2.3824638 0.443615,5.692676 0.386719,11.0898437 -0.0462,4.3895574 -0.08002,6.5667324 -0.357422,7.4785154 -0.138701,0.455892 -0.255746,0.556174 -0.509766,0.640625 -0.25402,0.08445 -0.712104,0.08789 -1.361328,0.08789 -0.951306,0 -1.444607,-0.12768 -1.730469,-0.416016 -0.285862,-0.288336 -0.464602,-0.862563 -0.554687,-1.921875 l -0.19336,-2.285156 -1.761718,1.414062 c -1.57675,1.267008 -4.500302,2.627408 -6.646485,3.082032 -2.180467,0.461885 -7.902647,0.463422 -9.964844,0.0078 -6.30621,-1.390594 -10.808282,-5.425562 -12.546875,-11.2207029 -0.674966,-2.2497647 -0.626831,-7.3040058 0.09766,-9.6289062 1.306019,-4.1912367 4.047051,-7.3245509 8.195312,-9.3496089 2.956785,-1.443433 5.462153,-1.982422 9.238281,-1.982422 z m 82.035156,-0.5 c -0.48352,0 -0.92181,0.03331 -1.27734,0.09766 -0.17777,0.03217 -0.33299,0.07244 -0.47266,0.125 -0.13967,0.05256 -0.26793,0.105771 -0.38672,0.25 -0.066,0.08013 -0.0647,0.09323 -0.0977,0.15039 -0.0329,0.05716 -0.0739,0.131186 -0.125,0.22461 -0.10214,0.186847 -0.24212,0.448476 -0.41602,0.777344 -0.3478,0.657734 -0.83229,1.584453 -1.41797,2.714843 -1.17137,2.260782 -2.74799,5.3324873 -4.44922,8.6699222 -1.7008,3.33661808 -3.25412,6.3784062 -4.38672,8.5898438 -0.56629,1.1057188 -1.02807,2.003061 -1.34961,2.6269531 -0.0784,0.1521099 -0.12035,0.2330923 -0.18164,0.3515625 -0.0546,-0.1031301 -0.0886,-0.1657233 -0.15625,-0.2949218 -0.31547,-0.6027178 -0.76764,-1.4813854 -1.32422,-2.5683594 -1.11315,-2.1739481 -2.640772,-5.18342737 -4.312495,-8.5019532 -1.672543,-3.3201666 -3.238014,-6.3901058 -4.414063,-8.6640622 -0.588024,-1.136979 -1.079106,-2.074764 -1.4375,-2.746094 -0.179196,-0.335665 -0.323715,-0.604847 -0.433593,-0.800781 -0.05494,-0.09797 -0.100804,-0.177405 -0.138672,-0.240235 -0.03787,-0.06283 -0.05177,-0.09324 -0.111328,-0.162109 -0.274399,-0.317343 -0.677609,-0.465695 -1.119141,-0.548828 -0.441532,-0.08313 -0.934727,-0.09245 -1.427734,-0.04297 -0.493008,0.04948 -0.983062,0.15907 -1.410156,0.328125 -0.427095,0.169055 -0.801706,0.390613 -1.035157,0.740235 -0.198371,0.297085 -0.31191,0.712397 -0.228515,1.255859 0.08339,0.543462 0.324992,1.25433 0.794922,2.361328 0.939858,2.2139958 2.808384,6.0044538 6.253906,12.8945312 L 100.39839,15.1172 97.443309,20.912121 c -1.290171,2.531181 -2.051722,4.07363 -2.5,5.134766 -0.448277,1.061136 -0.587988,1.672237 -0.591797,2.257813 -0.0033,0.513812 0.02005,0.885863 0.134766,1.21289 0.114714,0.327027 0.339187,0.577558 0.613281,0.769531 l 0.603516,0.423829 v -0.289063 c 0.50014,0.181885 1.014981,0.365568 1.605469,0.357422 0.406245,-0.0056 0.801377,-0.04943 1.15039,-0.138672 0.349013,-0.08924 0.65981,-0.209061 0.884766,-0.464844 0.04801,-0.05459 0.05211,-0.07106 0.07227,-0.103515 0.02016,-0.03246 0.04357,-0.07069 0.07031,-0.117188 0.05349,-0.093 0.122429,-0.218281 0.208984,-0.376953 0.173112,-0.317344 0.412906,-0.765896 0.712886,-1.333984 0.59997,-1.136177 1.43993,-2.746902 2.45899,-4.714844 2.03812,-3.935885 4.79257,-9.300234 7.77148,-15.1425782 4.15665,-8.15214097 6.86599,-13.5180683 8.53711,-16.9433594 0.83556,-1.7126454 1.41089,-2.9408324 1.78125,-3.7929684 0.18518,-0.426069 0.31981,-0.757248 0.41016,-1.015625 0.0904,-0.258378 0.14453,-0.421666 0.14453,-0.623047 0,-0.797144 -0.21881,-1.458859 -0.75,-1.867188 -0.53119,-0.408329 -1.27535,-0.541015 -2.26758,-0.541015 z m -155.310546,0 c -0.522785,0 -0.919799,0.0337 -1.277344,0.154296 -0.357545,0.120593 -0.6523,0.331987 -0.933594,0.613282 l -0.767578,0.765625 V 0.5078125 c 0,7.4286851 0.0035,11.2334645 0.07227,13.2636715 0.03438,1.015104 0.08249,1.584211 0.167968,1.97461 0.08548,0.390399 0.260602,0.63365 0.40625,0.779297 l 0.654297,0.654297 v -0.453126 c 0.459195,0.208212 0.906668,0.439462 1.492188,0.457032 0.842344,0.02528 1.702321,-0.08786 2.285156,-0.496094 l 0.755859,-0.529297 V 0.38671875 -15.382812 l -0.755859,-0.529297 c -0.249453,-0.174685 -0.56311,-0.276849 -0.927734,-0.357422 -0.364625,-0.08057 -0.774435,-0.126953 -1.171875,-0.126953 z m 116.291015,-0.226563 c -4.423411,-0.151404 -7.239751,0.634068 -10.146484,2.853516 l -0.617187,0.472656 v -0.316406 c 0,-0.866767 -0.253248,-1.593744 -0.785157,-2.080078 -0.531909,-0.486334 -1.294924,-0.703125 -2.224609,-0.703125 -0.944392,0 -1.661344,0.171258 -2.185547,0.595703 l -0.773437,0.625 V 0.38671875 15.951172 l 0.771484,0.623047 v 0.002 h 0.002 c 0.0087,0.007 0.02832,0.0029 0.03711,0.0098 0.532328,0.417174 1.230173,0.585937 2.25,0.585937 0.788734,0 1.394402,-0.09108 1.869141,-0.373047 0.474739,-0.281964 0.761008,-0.760893 0.894531,-1.34375 0.03006,-0.131271 0.02728,-0.208069 0.03711,-0.382812 0.0098,-0.174743 0.01957,-0.406432 0.0293,-0.69336 0.01945,-0.573856 0.03844,-1.362525 0.05664,-2.310547 0.03639,-1.896042 0.06745,-4.4297182 0.08594,-7.1445309 l 0.06836,-9.7734375 0.664062,-1.2617187 c 1.270827,-2.4074482 4.097305,-4.4135299 7.048829,-4.9726559 0.62346,-0.117993 2.392739,-0.172342 3.77539,-0.08984 1.197228,0.07138 1.852216,0.106351 2.341797,0.03906 0.489581,-0.06729 0.813448,-0.29587 1.101563,-0.583984 0.258702,-0.258691 0.453221,-0.539685 0.548828,-0.882812 0.09561,-0.343128 0.09961,-0.720671 0.06641,-1.22461 -0.03322,-0.504544 -0.104646,-0.933603 -0.279297,-1.310547 -0.174651,-0.376944 -0.464576,-0.686628 -0.855469,-0.896484 -0.781784,-0.419712 -1.920218,-0.526127 -3.78125,-0.589844 z m 126.857421,-0.04102 c -3.7959,0 -6.51063,0.585949 -9.60351,2.078124 -4.49928,2.170642 -7.7075,6.0864355 -8.7793,10.7343755 -0.49438,2.14384 -0.42044,7.0183602 0.14062,9.1171875 1.55169,5.804509 6.64093,10.3699 13.0586,11.765625 2.73894,0.595736 8.2662,0.527607 10.90234,-0.138672 6.10549,-1.543163 10.6792,-5.68968 12.45313,-11.3222655 0.81338,-2.5822981 0.85889,-7.5103723 0.0918,-10.0917969 -1.29774,-4.3672661 -4.30633,-7.8815816 -8.47265,-9.9609376 0.18858,0.102843 0.38317,0.185547 0.60937,0.185547 0.29866,0 0.58417,-0.0236 0.80469,-0.244141 0.22052,-0.220544 0.24609,-0.506065 0.24609,-0.804687 0,-0.298653 -0.0255,-0.58416 -0.24609,-0.804688 -0.22054,-0.220527 -0.50607,-0.246093 -0.80469,-0.246093 -0.29866,0 -0.58416,0.02556 -0.80469,0.246093 -0.22052,0.220538 -0.24609,0.506076 -0.24609,0.804688 0,0.27762 0.0483,0.534805 0.22852,0.748047 -3.08355,-1.490041 -5.73624,-2.066406 -9.57813,-2.066406 z m -169.873046,0 c -3.850839,0 -6.529859,0.576316 -9.574218,2.0625 -4.310327,2.104173 -7.226807,5.4281079 -8.591797,9.8085932 -0.809413,2.5974256 -0.861756,7.5358226 -0.09961,10.0761719 1.815686,6.0521099 6.57733,10.3083139 13.115235,11.7499999 l 0.43164,0.0957 0.0039,-0.0625 c 2.48289,0.450708 7.529804,0.453166 9.853515,-0.03906 2.305084,-0.488284 5.245718,-1.849822 6.96875,-3.234375 l 0.638672,-0.513672 0.07227,0.851562 c 0.09472,1.11382 0.264531,1.883175 0.773437,2.396485 0.508906,0.513309 1.257013,0.644531 2.275391,0.644531 0.639724,0 1.140528,0.02697 1.603516,-0.126953 0.462987,-0.153925 0.821417,-0.553085 1.001953,-1.146484 0.361071,-1.1868 0.344438,-3.303486 0.390625,-7.6914068 0.057,-5.4070002 -0.0099,-8.74477403 -0.396485,-11.21875 -0.386631,-2.4739759 -1.110341,-4.0845476 -2.3125,-5.9296874 -1.582202,-2.4284488 -3.760167,-4.2846048 -6.654297,-5.6874998 -2.98544,-1.447153 -5.735702,-2.035157 -9.5,-2.035156 z m -42.3320309,-0.01563 c -1.9921477,-0.0232 -3.9812397,0.118722 -5.3085941,0.431641 -1.911836,0.450727 -4.551696,1.663742 -5.99414,2.763672 l -0.25,0.189453 v -0.564453 c 0,-0.580219 -0.0171,-0.968745 -0.146485,-1.3125 -0.129384,-0.343755 -0.386348,-0.585335 -0.697265,-0.789063 -0.612676,-0.401429 -1.524806,-0.46456 -2.40625,-0.398437 -0.440723,0.03306 -0.869373,0.107351 -1.240235,0.228516 -0.370862,0.121164 -0.695297,0.274532 -0.910156,0.568359 -0.101108,0.138296 -0.131216,0.264114 -0.166016,0.431641 -0.0348,0.167527 -0.06144,0.375835 -0.08594,0.648437 -0.04899,0.545204 -0.08451,1.346319 -0.111328,2.521484 -0.05364,2.350332 -0.07031,6.1946876 -0.07031,12.40039112 0,7.46380458 0.0016,11.28335188 0.07031,13.32226588 0.03438,1.019457 0.08254,1.591001 0.167969,1.982422 0.08542,0.39142 0.260594,0.635587 0.40625,0.78125 l 0.654296,0.65625 V 16.875 c 0.462534,0.192791 0.984637,0.308797 1.552735,0.318359 0.856049,0.01441 1.720747,-0.112525 2.275391,-0.578125 0.148107,-0.124335 0.335986,-0.325566 0.435546,-0.630859 0.09956,-0.305293 0.150413,-0.708427 0.191407,-1.398437 0.08199,-1.380021 0.10277,-3.911936 0.138671,-8.8613286 0.03594,-4.94755496 0.05968,-7.4921613 0.144532,-8.921875 0.08485,-1.4297138 0.201692,-1.6781508 0.490234,-2.2636719 1.211305,-2.4579829 4.16937,-4.6058255 7.5097658,-5.3808595 1.8634468,-0.432376 5.8214161,-0.1745 7.5429687,0.486328 2.888539,1.1087607 5.173083,3.4797012 6.0761719,6.2871096 0.3345394,1.0399564 0.4440149,2.8837075 0.5449218,10.6660156 0.059653,4.6044288 0.092149,6.9531808 0.1816407,8.2304688 0.044746,0.638644 0.097885,1.010879 0.2050781,1.298828 0.1071934,0.287949 0.3122821,0.47459 0.4628906,0.580078 0.2519539,0.17654 0.5671777,0.267552 0.9433594,0.34375 0.3761817,0.0762 0.8056519,0.121094 1.2304688,0.121094 0.6077991,0 1.0141113,-0.0177 1.3769531,-0.152344 0.3628417,-0.134643 0.6235786,-0.388649 0.8847651,-0.720703 0.144241,-0.183386 0.297945,-0.396001 0.392579,-0.716797 0.09463,-0.320796 0.144052,-0.735863 0.173828,-1.425781 0.05955,-1.379836 0.03257,-3.878865 -0.02149,-8.8339844 C 10.68507,-2.6060825 10.600839,-4.938061 10.242188,-6.1230469 8.7041201,-11.204581 4.8874488,-14.73614 -0.54296875,-16.125 -1.8844037,-16.46812 -3.8808991,-16.656489 -5.8730469,-16.679688 Z M 237.77344,-25.496094 c 0.64208,0 1.1079,0.0069 1.38867,0.07813 0.28077,0.07126 0.37946,0.141865 0.50195,0.425781 0.24499,0.567834 0.28516,2.070414 0.28516,5.044922 v 5.333985 l 5.0039,0.0957 c 2.70718,0.05195 4.09987,0.119383 4.64844,0.339844 0.27429,0.11023 0.33477,0.189562 0.40039,0.398437 0.0656,0.208876 0.082,0.57636 0.082,1.091797 0,0.551095 -0.0182,0.945281 -0.0898,1.177734 -0.0716,0.232454 -0.1417,0.323995 -0.41992,0.4375 -0.55644,0.227011 -1.96604,0.275391 -4.68555,0.275391 h -4.99023 l 0.10937,8.7226562 c 0.0543,4.3917633 0.0846,6.6420067 0.27539,8.0820313 0.19081,1.4400246 0.58152,2.0882861 1.23828,3.0429687 1.4491,2.1064658 4.33422,3.3203128 7.64063,3.3203128 0.8076,0 1.25078,0.02669 1.48828,0.09766 0.2375,0.07097 0.32605,0.158419 0.5625,0.458984 0.26405,0.335673 0.4707,0.950774 0.4707,1.460938 0,0.510168 -0.20663,1.123379 -0.4707,1.458984 -0.26339,0.33485 -0.2798,0.395419 -0.63672,0.466797 -0.35692,0.07138 -1.07454,0.07938 -2.45898,0.06836 -1.54254,-0.01138 -3.4592,-0.183399 -4.10352,-0.339843 -3.31126,-0.804462 -6.49781,-3.41809 -7.61523,-6.1972659 -0.31387,-0.780584 -0.45056,-1.1349203 -0.54102,-2.5117187 -0.0905,-1.3767984 -0.11535,-3.7373982 -0.1543,-8.3496094 l -0.082,-9.78125 h -3.25976 c -1.22165,0 -1.95267,-0.02082 -2.38281,-0.08398 -0.43015,-0.06317 -0.51515,-0.123565 -0.6543,-0.277344 -0.0345,-0.03811 -0.13068,-0.221276 -0.19531,-0.464844 -0.0646,-0.243568 -0.11232,-0.547336 -0.13477,-0.853515 -0.0224,-0.30618 -0.0205,-0.616762 0.008,-0.871094 0.0283,-0.254332 0.0968,-0.456143 0.13086,-0.509766 0.0976,-0.153475 0.41684,-0.359926 1.04492,-0.496094 0.62809,-0.136168 1.53097,-0.208984 2.70508,-0.208984 h 2.76758 v -5.257812 c 0,-2.994838 0.0455,-4.528011 0.29492,-5.13086 0.12472,-0.301424 0.22812,-0.37875 0.4961,-0.455078 0.26798,-0.07633 0.71409,-0.08984 1.33203,-0.08984 z m 0,-0.767578 c -0.62148,0 -1.10846,-0.0046 -1.54297,0.119141 -0.43452,0.123762 -0.80191,0.435786 -0.99414,0.90039 -0.38447,0.929209 -0.35352,2.427779 -0.35352,5.423829 v 4.490234 h -2 c -1.20476,0 -2.14776,0.07059 -2.86719,0.226562 -0.71942,0.15597 -1.24652,0.389245 -1.52929,0.833985 -0.15456,0.243047 -0.21098,0.522688 -0.2461,0.83789 -0.0351,0.315203 -0.0371,0.662742 -0.0117,1.009766 0.0254,0.347024 0.0795,0.691984 0.16015,0.996094 0.0807,0.30411 0.17276,0.56836 0.36719,0.783203 0.23652,0.261383 0.58773,0.444595 1.11133,0.521484 0.5236,0.07689 1.26493,0.0918 2.49414,0.0918 h 2.5 l 0.0762,9.0195314 c 0.0389,4.6125378 0.0607,6.967887 0.1543,8.3925781 0.0936,1.4246911 0.27822,1.9584739 0.5957,2.7480465 1.24018,3.084488 4.57831,5.791801 8.14453,6.658203 0.0194,0.0047 0.0791,0.0032 0.0996,0.0078 0.86086,0.195297 2.62703,0.340112 4.17969,0.351563 1.3862,0.01104 2.09921,0.02116 2.61523,-0.08203 0.51603,-0.103196 0.81542,-0.395266 1.08985,-0.74414 0.40573,-0.515649 0.63476,-1.238599 0.63476,-1.933594 0,-0.695044 -0.22915,-1.419919 -0.63476,-1.935547 -0.26307,-0.334397 -0.53832,-0.597136 -0.94532,-0.71875 -0.40699,-0.121614 -0.89073,-0.128906 -1.70898,-0.128906 -3.11701,0 -5.75532,-1.166711 -7.00977,-2.9902346 -0.65014,-0.9450604 -0.92911,-1.3613537 -1.10742,-2.7070313 -0.1783,-1.3456776 -0.21721,-3.6012288 -0.27148,-7.9921875 l -0.0977,-7.9453126 h 4.21289 c 2.72211,0 4.10274,0.02172 4.97461,-0.333984 0.43594,-0.177851 0.73936,-0.517605 0.86328,-0.919922 0.12392,-0.402317 0.12305,-0.845382 0.12305,-1.404297 0,-0.521063 0.005,-0.938019 -0.11523,-1.322266 -0.12073,-0.384247 -0.42214,-0.707895 -0.84766,-0.878906 -0.85105,-0.342022 -2.21111,-0.344498 -4.91992,-0.396484 l -4.25,-0.08203 v -4.580078 c 0,-2.974204 0.0435,-4.438349 -0.34961,-5.349609 -0.19658,-0.45563 -0.57584,-0.753625 -1.01563,-0.865234 -0.43978,-0.11161 -0.93685,-0.101563 -1.57812,-0.101563 z m -273.863284,-1.320312 c 0.801649,0.119893 1.518211,0.443857 1.972656,0.93164 0.192217,0.206327 0.285138,0.360549 0.355469,0.650391 0.07033,0.289842 0.101563,0.722611 0.101563,1.392578 0,0.756944 -0.02821,1.172715 -0.111328,1.4375 -0.08312,0.264785 -0.218574,0.437365 -0.556641,0.775391 -0.345906,0.345905 -0.508004,0.477664 -0.78125,0.558593 -0.273246,0.08093 -0.718753,0.101937 -1.544922,0.09766 -0.4804,-0.0022 -0.994281,-0.04259 -1.419922,-0.105469 -0.42564,-0.06288 -0.789839,-0.172602 -0.855469,-0.208985 -0.789866,-0.437791 -1.144007,-1.174025 -1.154296,-2.634765 -0.0055,-0.751434 0.110822,-1.28267 0.34375,-1.675781 0.232927,-0.393111 0.589171,-0.679219 1.169922,-0.921875 0.792143,-0.330982 1.678819,-0.416769 2.480468,-0.296875 z m 0.125,-0.777344 c -0.943988,-0.140727 -1.969374,-0.02377 -2.90039,0.365234 -0.68158,0.284787 -1.205677,0.684173 -1.535157,1.240235 -0.329479,0.556061 -0.457218,1.237314 -0.451171,2.070312 0.01127,1.600024 0.502507,2.721718 1.550781,3.302735 0.284901,0.15794 0.649887,0.226177 1.115234,0.294921 0.465347,0.06874 1.006424,0.112842 1.527344,0.115235 0.836611,0.0043 1.334456,-0.0026 1.767578,-0.13086 0.433122,-0.128281 0.739424,-0.385908 1.105469,-0.751953 0.360872,-0.360828 0.614179,-0.665715 0.746094,-1.085937 0.131914,-0.420222 0.144531,-0.897533 0.144531,-1.667969 0,-0.691084 -0.02553,-1.170397 -0.123047,-1.572266 -0.09752,-0.401869 -0.284729,-0.719183 -0.539063,-0.992187 -0.603104,-0.647346 -1.464214,-1.046773 -2.408203,-1.1875 z m 183.269534,-0.601563 c 0.69084,0 1.18004,-0.0082 1.44531,0.07617 0.26527,0.08434 0.38286,0.187467 0.52148,0.6875 0.27726,1.000068 0.2754,3.399974 0.2754,8.322266 v 9.208984 l 2.02539,-1.644531 c 3.23564,-2.626413 7.02096,-3.702189 12.47656,-3.503906 5.84601,0.21243 9.15866,1.504974 12.55664,4.875 3.25779,3.2309902 4.66601,6.6463889 4.66601,11.32812475 0,4.72848925 -1.31047,7.96732535 -4.53906,11.22851525 -3.63272,3.669403 -7.44471,5.080478 -13.65234,5.027344 -1.86426,-0.01605 -3.982,-0.147571 -4.52344,-0.253906 -5.85437,-1.14859 -10.36837,-4.791318 -12.4707,-10.0429689 l -0.70703,-1.765625 -0.0762,-16.4296871 c -0.0439,-9.487559 -0.10736,-13.890288 0.1543,-15.810547 0.0654,-0.480065 0.15298,-0.800157 0.24219,-0.988282 0.0892,-0.188124 0.15503,-0.239849 0.24805,-0.28125 0.18602,-0.0828 0.65394,-0.0332 1.35742,-0.0332 z m -230.400393,0 c 0.583663,0 0.975678,0.03185 1.240234,0.09961 0.264556,0.06776 0.40592,0.153955 0.572266,0.320312 0.11199,0.111986 0.147017,0.149034 0.203125,0.326172 0.05611,0.177138 0.108616,0.501421 0.142578,1.072266 0.06792,1.14169 0.07422,3.257385 0.07422,7.294922 v 9.294921 l 1.673828,-1.511718 c 1.416405,-1.279631 2.92871,-2.112788 5.367187,-2.939453 2.719412,-0.921936 7.847925,-1.172947 11.158204,-0.525391 6.207387,1.214331 11.252522,5.6161427 12.916015,11.2285156 0.674113,2.2743533 0.625579,7.3216921 -0.09766,9.6425782 -0.789725,2.5343772 -2.2506,4.8680182 -4.171875,6.6660152 -2.035443,1.904861 -3.709972,2.891427 -6.447266,3.792969 -1.838937,0.605658 -2.561841,0.694074 -6.15625,0.771484 -2.845517,0.0612 -4.601649,-0.03089 -5.638672,-0.269531 -6.41012,-1.475122 -10.993764,-5.636575 -12.580078,-11.378906 -0.407992,-1.476901 -0.457031,-3.1335347 -0.457031,-17.556641 0,-9.146499 -0.04979,-13.356508 0.228516,-15.15625 0.06958,-0.449935 0.160338,-0.742293 0.25,-0.908203 0.08966,-0.165909 0.153538,-0.208958 0.259765,-0.248047 0.212456,-0.07818 0.720195,-0.01563 1.462891,-0.01563 z m 230.400393,-0.767578 c -0.63302,0 -1.1426,-0.134237 -1.66797,0.09961 -0.26269,0.116923 -0.48565,0.348074 -0.63086,0.654297 -0.14521,0.306222 -0.23753,0.691342 -0.30859,1.21289 -0.28427,2.086191 -0.20405,6.433207 -0.16016,15.917969 l 0.0762,16.5742186 0.76172,1.9023438 c 2.19806,5.4907766 6.9521,9.3163076 13.03516,10.5097656 0.012,0.0024 0.0616,0.0016 0.0742,0.0039 0.7836,0.144774 2.72863,0.247645 4.58984,0.263672 6.32978,0.05418 10.44789,-1.460755 14.20312,-5.253906 3.33702,-3.370713 4.76172,-6.8935275 4.76172,-11.76757825 0,-4.83889805 -1.51883,-8.52510745 -4.89258,-11.87109375 -3.5085,-3.479646 -7.11672,-4.881388 -13.06836,-5.097656 -5.57076,-0.202469 -9.60481,0.925839 -12.99023,3.673828 l -0.77539,0.628906 v -7.597656 c 0,-4.919614 0.0506,-7.252828 -0.30273,-8.527344 -0.17667,-0.637258 -0.54455,-1.059383 -1.02735,-1.212891 -0.4828,-0.153507 -1.00431,-0.113281 -1.67773,-0.113281 z m -230.400393,0 c -0.671419,0 -1.191252,-0.135195 -1.728516,0.0625 -0.268632,0.09885 -0.510011,0.311231 -0.667969,0.603516 -0.157957,0.292285 -0.257277,0.660204 -0.333984,1.15625 -0.306829,1.984181 -0.236328,6.130347 -0.236328,15.273437 0,14.4247072 0.04163,16.1590062 0.484375,17.7617191 1.662346,6.0175639 6.505425,10.3936079 13.146484,11.9218749 0.01732,0.004 0.06835,4e-6 0.08594,0.0039 1.175109,0.260798 2.916722,0.345926 5.742187,0.285157 3.606432,-0.07767 4.501284,-0.192149 6.378907,-0.810547 2.808946,-0.925142 4.638265,-2.00113 6.732421,-3.960938 2.021186,-1.891497 3.549131,-4.3351379 4.378907,-6.9980466 0.808185,-2.593494 0.860249,-7.530151 0.101562,-10.0898438 -1.752306,-5.9120156 -7.031074,-10.4954596 -13.503906,-11.7617186 -3.487362,-0.682197 -8.604406,-0.446809 -11.552734,0.552734 -2.496603,0.846371 -4.138131,1.741637 -5.634766,3.09375 l -0.392578,0.355469 v -7.568359 c 0,-4.038248 -0.0051,-6.147792 -0.07617,-7.341797 -0.03552,-0.597003 -0.08399,-0.968016 -0.175781,-1.257813 -0.09179,-0.289797 -0.251082,-0.491321 -0.394532,-0.634765 -0.244563,-0.24458 -0.548274,-0.425298 -0.923828,-0.521485 -0.375554,-0.09619 -0.819801,-0.125 -1.429687,-0.125 z" />
    <path
       style="color:#000000;font-style:normal;font-variant:normal;font-weight:normal;font-stretch:normal;font-size:medium;line-height:normal;font-family:sans-serif;font-variant-ligatures:normal;font-variant-position:normal;font-variant-caps:normal;font-variant-numeric:normal;font-variant-alternates:normal;font-feature-settings:normal;text-indent:0;text-align:start;text-decoration:none;text-decoration-line:none;text-decoration-style:solid;text-decoration-color:#000000;letter-spacing:normal;word-spacing:normal;text-transform:none;writing-mode:lr-tb;direction:ltr;text-orientation:mixed;dominant-baseline:auto;baseline-shift:baseline;text-anchor:start;white-space:normal;shape-padding:0;clip-rule:nonzero;display:inline;overflow:visible;visibility:visible;opacity:1;isolation:auto;mix-blend-mode:normal;color-interpolation:sRGB;color-interpolation-filters:linearRGB;solid-color:#000000;solid-opacity:1;vector-effect:none;fill:#fdd243;fill-opacity:0;fill-rule:nonzero;stroke:#fdd243;stroke-width:0.76700002;stroke-linecap:butt;stroke-linejoin:miter;stroke-miterlimit:4;stroke-dasharray:none;stroke-dashoffset:0;stroke-opacity:0.98994976;color-rendering:auto;image-rendering:auto;shape-rendering:auto;text-rendering:auto;enable-background:accumulate"
       d="m -44.416016,6.0039032 c -0.353252,0 -0.715272,0.076345 -0.966796,0.34375 -0.251525,0.2674048 -0.384046,0.6199225 -0.583985,1.1777344 -0.71781,2.0025745 -2.314471,4.4561614 -4.119141,6.3066404 -4.375117,4.486205 -10.027636,6.835599 -16.732421,6.941407 l -3.402344,0.05469 -9.0625,7.519531 c -2.465294,2.045525 -4.720484,3.95243 -6.371094,5.378906 -0.825305,0.713239 -1.499503,1.306269 -1.974609,1.738282 -0.237554,0.216006 -0.425157,0.391611 -0.560547,0.52539 -0.0677,0.06689 -0.121081,0.121182 -0.166016,0.171875 -0.02247,0.02535 -0.04349,0.04962 -0.06445,0.07813 -0.02096,0.02851 -0.04406,0.04834 -0.07422,0.144532 -0.05936,0.189601 -0.251145,0.661564 -0.402343,0.976562 -0.119424,0.248939 -0.199796,0.472221 -0.19336,0.716797 0.0064,0.244576 0.129218,0.478826 0.291016,0.640625 0.0286,0.02861 0.203125,0.427282 0.203125,0.658203 0,0.280794 0.109023,0.440131 0.255859,0.699219 0.146836,0.259087 0.352889,0.574599 0.621094,0.951172 0.528445,0.741962 1.301272,1.727193 2.271484,2.898437 l 0.0039,0.0059 0.03125,0.03711 c 1.32739,1.600228 2.129141,2.536017 2.707031,3.095703 0.288945,0.279843 0.523037,0.469327 0.755859,0.595703 0.232823,0.126377 0.470541,0.179688 0.685547,0.179688 0.23348,0 0.369137,-0.08351 0.580078,-0.201172 0.210941,-0.117664 0.472904,-0.289876 0.814453,-0.53125 0.6831,-0.482749 1.677041,-1.246353 3.117188,-2.394531 2.880293,-2.296357 7.539164,-6.129375 14.972656,-12.298829 7.791812,-6.466851 12.410188,-10.327687 15.085938,-12.646484 1.337875,-1.159398 2.189503,-1.932589 2.716797,-2.46289 0.263646,-0.265151 0.445939,-0.468007 0.574218,-0.642579 0.12828,-0.174571 0.230552,-0.315845 0.22461,-0.554687 -0.0088,-0.343648 -0.03891,-2.696454 -0.06641,-5.189453 l -0.05469,-4.9140628 z"
       id="path831" />
    <path
       style="color:#000000;font-style:normal;font-variant:normal;font-weight:normal;font-stretch:normal;font-size:medium;line-height:normal;font-family:sans-serif;font-variant-ligatures:normal;font-variant-position:normal;font-variant-caps:normal;font-variant-numeric:normal;font-variant-alternates:normal;font-feature-settings:normal;text-indent:0;text-align:start;text-decoration:none;text-decoration-line:none;text-decoration-style:solid;text-decoration-color:#000000;letter-spacing:normal;word-spacing:normal;text-transform:none;writing-mode:lr-tb;direction:ltr;text-orientation:mixed;dominant-baseline:auto;baseline-shift:baseline;text-anchor:start;white-space:normal;shape-padding:0;clip-rule:nonzero;display:inline;overflow:visible;visibility:visible;opacity:1;isolation:auto;mix-blend-mode:normal;color-interpolation:sRGB;color-interpolation-filters:linearRGB;solid-color:#000000;solid-opacity:1;vector-effect:none;fill:#fdd243;fill-opacity:0;fill-rule:nonzero;stroke:#fdd243;stroke-width:0.76700002;stroke-linecap:butt;stroke-linejoin:miter;stroke-miterlimit:4;stroke-dasharray:none;stroke-dashoffset:0;stroke-opacity:0.98994976;color-rendering:auto;image-rendering:auto;shape-rendering:auto;text-rendering:auto;enable-background:accumulate"
       d="m 16.167969,10.537106 c -0.278393,0 -0.542075,0.03386 -0.75586,0.222657 -0.213784,0.188801 -0.271484,0.4692 -0.271484,0.730468 0,0.09886 0.0096,0.09027 0.01563,0.121094 0.0061,0.03082 0.01351,0.0659 0.02344,0.109375 0.01985,0.08694 0.04711,0.204835 0.08398,0.353516 0.07374,0.297361 0.181388,0.717738 0.318359,1.246093 0.273942,1.056712 0.666969,2.543586 1.138672,4.320313 0.943407,3.553454 2.206343,8.266326 3.488281,13.021484 1.281939,4.755158 2.58153,9.552434 3.597657,13.267579 0.508063,1.857572 0.944998,3.443347 1.273437,4.621093 0.328439,1.177746 0.540976,1.924618 0.626953,2.179688 0.09015,0.267608 0.320115,0.404248 0.539063,0.472656 0.218947,0.06841 0.4606,0.08263 0.720703,0.05273 0.313185,-0.03603 0.579282,-0.240855 0.939453,-0.644531 0.360171,-0.403676 0.843672,-1.047307 1.578125,-2.105469 1.468906,-2.116323 3.93429,-5.884417 8.277344,-12.574218 2.733186,-4.210066 5.181526,-8.048404 6.949219,-10.878907 0.883846,-1.415251 1.596751,-2.577342 2.091796,-3.412109 0.247523,-0.417384 0.442023,-0.752741 0.576172,-1 0.06708,-0.123629 0.118877,-0.224117 0.158203,-0.308594 0.01966,-0.04224 0.03616,-0.08103 0.05078,-0.121093 0.01462,-0.04007 0.03239,-0.06647 0.03516,-0.171876 0.0046,-0.154448 0.01115,-0.288749 -0.0293,-0.447265 -0.04044,-0.158516 -0.183217,-0.350736 -0.355469,-0.425781 -0.344504,-0.150091 -0.627303,-0.07025 -1.160156,-0.0039 -0.694441,0.08648 -2.316272,0.467423 -3.722656,0.861329 -2.79586,0.783076 -7.065933,0.968966 -9.824219,0.43164 -5.867931,-1.143092 -10.828538,-4.005139 -14.091797,-8.105469 -0.491557,-0.617649 -0.875807,-1.048672 -1.224609,-1.34375 -0.348802,-0.295077 -0.689702,-0.46875 -1.046875,-0.46875 z"
       id="path827" />
    <g
       id="g4622">
      <path
         id="path825"
         style="color:#000000;font-style:normal;font-variant:normal;font-weight:normal;font-stretch:normal;font-size:medium;line-height:normal;font-family:sans-serif;font-variant-ligatures:normal;font-variant-position:normal;font-variant-caps:normal;font-variant-numeric:normal;font-variant-alternates:normal;font-feature-settings:normal;text-indent:0;text-align:start;text-decoration:none;text-decoration-line:none;text-decoration-style:solid;text-decoration-color:#000000;letter-spacing:normal;word-spacing:normal;text-transform:none;writing-mode:lr-tb;direction:ltr;text-orientation:mixed;dominant-baseline:auto;baseline-shift:baseline;text-anchor:start;white-space:normal;shape-padding:0;clip-rule:nonzero;display:inline;overflow:visible;visibility:visible;opacity:1;isolation:auto;mix-blend-mode:normal;color-interpolation:sRGB;color-interpolation-filters:linearRGB;solid-color:#000000;solid-opacity:1;vector-effect:none;fill:#fdd243;fill-opacity:0;fill-rule:nonzero;stroke:#fdd243;stroke-width:0.76700002;stroke-linecap:butt;stroke-linejoin:miter;stroke-miterlimit:4;stroke-dasharray:none;stroke-dashoffset:0;stroke-opacity:0.98994976;color-rendering:auto;image-rendering:auto;shape-rendering:auto;text-rendering:auto;enable-background:accumulate"
         d="m 16.167969,11.304685 c 0.113195,0 0.274389,0.05133 0.550781,0.285156 0.276392,0.23382 0.641458,0.636112 1.119141,1.236328 3.390773,4.260554 8.522606,7.209265 14.546875,8.382812 2.931912,0.571149 7.221448,0.380744 10.177734,-0.447265 1.380392,-0.386625 3.059029,-0.769109 3.611328,-0.837891 0.468826,-0.05837 0.661423,-0.03868 0.679688,-0.04883 0.0018,0.0283 0.002,0.04955 0.002,0.09961 -0.0045,0.01062 -0.0059,0.01646 -0.01367,0.0332 -0.02773,0.05957 -0.07588,0.151848 -0.138672,0.267579 -0.125578,0.231462 -0.313806,0.559884 -0.558594,0.972656 -0.489576,0.825544 -1.201935,1.986064 -2.083984,3.398437 -1.764098,2.824747 -4.2102,6.660172 -6.941406,10.867188 -4.342496,6.688942 -6.810743,10.458567 -8.265625,12.554687 -0.727441,1.04806 -1.203777,1.679309 -1.519532,2.033203 -0.315754,0.353895 -0.441992,0.38912 -0.455078,0.390626 -0.173955,0.01999 -0.322618,0.004 -0.404297,-0.02148 -0.08168,-0.02552 -0.06124,-0.04638 -0.04102,0.01367 -0.05949,-0.176482 -0.285452,-0.963112 -0.613282,-2.138672 -0.327829,-1.17556 -0.765568,-2.76228 -1.273437,-4.619141 -1.015738,-3.713721 -2.315908,-8.509218 -3.597656,-13.263671 -1.281749,-4.754454 -2.54529,-9.467643 -3.488281,-13.019532 -0.471496,-1.775944 -0.863492,-3.262453 -1.136719,-4.316406 -0.136614,-0.526976 -0.241955,-0.94593 -0.314453,-1.238281 -0.03625,-0.146176 -0.06414,-0.261476 -0.08203,-0.339844 -0.0083,-0.03645 -0.01392,-0.0619 -0.01758,-0.08008 0.0048,-0.10446 0.01988,-0.143702 0.0098,-0.134766 -0.01173,0.01036 0.04716,-0.0293 0.248047,-0.0293 z M -44.416016,6.7714814 h 0.359375 l 0.04492,4.1542966 c 0.0275,2.493863 0.05658,4.815938 0.06641,5.201172 -0.0025,-0.09916 0.01403,-0.04002 -0.07422,0.08008 -0.08825,0.120094 -0.252672,0.305938 -0.501953,0.556641 -0.498562,0.501407 -1.341852,1.269541 -2.673828,2.423828 -2.663953,2.308574 -7.283201,6.168573 -15.074219,12.634766 -7.432528,6.168654 -12.08902,10.002894 -14.958985,12.291015 -1.434982,1.144061 -2.425576,1.901889 -3.083984,2.367188 -0.329204,0.232649 -0.576521,0.393692 -0.746094,0.488281 -0.169572,0.09459 -0.286175,0.103516 -0.205078,0.103516 -0.109464,0 -0.184033,-0.01392 -0.320312,-0.08789 -0.13628,-0.07397 -0.325977,-0.217039 -0.587891,-0.470703 -0.517522,-0.50122 -1.323376,-1.436801 -2.619141,-2.998047 l -0.03125,-0.03711 c -0.98367,-1.185849 -1.753635,-2.1694 -2.271484,-2.896485 -0.258925,-0.363542 -0.454994,-0.664058 -0.580078,-0.884765 -0.125084,-0.220707 -0.15625,-0.405097 -0.15625,-0.320313 0,-0.445111 -0.108324,-0.883677 -0.425781,-1.201172 -0.07031,-0.07031 -0.06716,-0.07143 -0.06836,-0.117187 -0.0012,-0.04575 0.02429,-0.167527 0.119141,-0.365235 0.156942,-0.326965 0.319135,-0.727342 0.412109,-1.005859 0.0031,-0.0038 0.0036,-0.0065 0.01172,-0.01563 0.02542,-0.02867 0.07008,-0.07667 0.130859,-0.136719 0.121551,-0.120105 0.30584,-0.291838 0.539063,-0.503906 0.466445,-0.424137 1.136533,-1.013837 1.958984,-1.724609 1.644903,-1.421545 3.897419,-3.326386 6.359375,-5.369141 l 8.855469,-7.347656 3.130859,-0.04883 c 6.878055,-0.108543 12.756629,-2.546339 17.269532,-7.173828 1.88215,-1.929927 3.519605,-4.4318733 4.291015,-6.5839849 0.193022,-0.5385131 0.335458,-0.8182827 0.421875,-0.9101562 0.08642,-0.091874 0.123206,-0.1015625 0.408203,-0.1015625 z M 125.36914,-10.0293 c -0.0123,0 -0.0379,-0.02711 0.0391,0.039063 0.077,0.066177 0.21662,0.2231206 0.41602,0.5039063 0.39879,0.5615712 1.04178,1.6130442 2.10937,3.4804687 2.13519,3.734849 5.98021,10.7453911 13.12696,23.814453 4.21646,7.710545 8.0807,14.759321 10.9082,19.904297 1.41375,2.572488 2.56812,4.66899 3.37891,6.134765 0.40539,0.732888 0.72424,1.308387 0.94726,1.707032 0.11151,0.199322 0.19917,0.353306 0.26172,0.46289 0.0313,0.05479 0.0567,0.09778 0.0762,0.13086 0.0195,0.03308 0.0108,0.02916 0.0606,0.09375 0.0885,0.115028 0.26262,0.166816 0.35937,0.160156 0.0968,-0.0067 0.14913,-0.03345 0.19532,-0.05664 0.0924,-0.04639 0.15873,-0.09766 0.24023,-0.166015 0.16301,-0.136706 0.36847,-0.340194 0.64258,-0.628907 0.54822,-0.577425 1.36042,-1.493886 2.5,-2.824219 2.27917,-2.660665 5.86201,-6.969493 11.19531,-13.441406 6.56592,-7.967692 10.15012,-12.296282 12.17578,-14.623047 1.01283,-1.163382 1.63864,-1.826205 2.03321,-2.179687 0.39456,-0.353482 0.49676,-0.363779 0.56054,-0.363281 0.26367,0.0019 0.40529,0.03841 0.60938,0.18164 0.20408,0.143226 0.46297,0.418983 0.82226,0.884766 1.24161,1.609633 4.36316,4.146385 6.52539,5.333984 0.59258,0.325485 0.97155,0.572571 1.17188,0.757813 0.17752,0.164158 0.18896,0.237057 0.19531,0.335937 -0.01,0.01629 -0.012,0.02429 -0.0254,0.04492 -0.0671,0.10368 -0.17479,0.256946 -0.31641,0.451172 -0.28322,0.388451 -0.70372,0.941587 -1.24023,1.630859 -1.07301,1.378545 -2.60985,3.305656 -4.45703,5.595704 -3.69435,4.580095 -8.63081,10.612173 -13.5918,16.621093 -4.96099,6.00892 -9.94749,11.995395 -13.74218,16.486328 -1.89735,2.245467 -3.49644,4.117896 -4.64454,5.429688 -0.57405,0.655896 -1.03689,1.171512 -1.36328,1.521484 -0.16319,0.174986 -0.29266,0.30998 -0.38086,0.394531 -0.0387,0.03716 -0.0645,0.05964 -0.082,0.07422 -0.15791,0.03225 -0.31667,0.07086 -0.46094,0.128907 -0.17669,0.07109 -0.32933,0.141158 -0.4707,0.277343 -0.0864,0.08326 -0.11486,0.08373 -0.13672,0.09375 -0.0651,-0.145977 -0.12837,-0.304892 -0.24023,-0.365234 -0.11008,-0.05938 -0.23812,-0.06892 -0.36328,-0.08594 -0.002,-0.0018 -9e-5,1.09e-4 -0.002,-0.002 -0.0356,-0.03929 -0.10178,-0.123202 -0.18554,-0.242187 -0.16754,-0.237971 -0.41294,-0.621974 -0.74024,-1.16211 -0.65458,-1.080271 -1.63938,-2.789723 -3.04101,-5.283203 C 147.63237,56.235646 143.16088,48.112182 136.30479,35.57612 131.41751,26.63995 126.97482,18.462441 123.75401,12.488229 122.1435,9.5011756 120.83915,7.0640793 119.9375,5.359375 119.48667,4.5070228 119.1366,3.8371933 118.90039,3.375 c -0.1181,-0.2310967 -0.20929,-0.4096214 -0.26758,-0.53125 -0.0161,-0.033619 -0.0241,-0.050146 -0.0352,-0.074219 0.007,-0.021443 0.0123,-0.036589 0.0234,-0.066406 0.0394,-0.1051408 0.10091,-0.2570503 0.18164,-0.4433594 0.16148,-0.3726182 0.39902,-0.8885253 0.69141,-1.50585935 0.58478,-1.23466813 1.39207,-2.87654275 2.28125,-4.62500005 1.49001,-2.9299363 2.3172,-4.5235455 2.83008,-5.3535156 0.25644,-0.414985 0.43611,-0.6331874 0.54297,-0.7226562 0.10685,-0.089468 0.11087,-0.082031 0.2207,-0.082031 z M 12.972656,-46.291016 16.96875,-31.591797 c 1.122043,4.126823 2.140454,7.965869 2.876953,10.824219 0.368249,1.429175 0.66645,2.613878 0.871094,3.464844 0.102322,0.425482 0.181935,0.76838 0.234375,1.013672 0.02622,0.122645 0.04452,0.221607 0.05664,0.291015 0.01212,0.06941 0.01472,0.129479 0.01563,0.08203 -0.0037,0.191041 -0.08358,0.432831 -0.386719,0.857422 -0.303139,0.424591 -0.819366,1.006946 -1.615235,1.835938 -1.389466,1.447289 -2.435067,2.835657 -3.037109,4.0585935 -0.355518,0.7221469 -0.603135,1.1524189 -0.779297,1.359375 -0.176162,0.2069561 -0.209616,0.2089844 -0.392578,0.2089844 -0.188202,0 -0.227264,-0.012598 -0.339844,-0.1308594 C 14.360077,-7.8448236 14.201239,-8.1164844 14,-8.5859375 c -0.142547,-0.3325538 -0.270522,-0.6483494 -0.363281,-0.8867187 -0.04638,-0.1191847 -0.08548,-0.220007 -0.109375,-0.2890626 -0.01195,-0.034528 -0.01957,-0.062718 -0.02344,-0.076172 -0.0039,-0.013454 0.0039,-0.045245 0.0039,0.056641 10e-7,-0.2038188 -0.06281,-0.3058662 -0.134765,-0.4531252 -0.07195,-0.147259 -0.167592,-0.313748 -0.285156,-0.5 -0.235129,-0.372503 -0.55685,-0.824258 -0.921875,-1.304687 -0.730051,-0.960859 -1.63172,-2.028496 -2.3671879,-2.746094 l -1.6464843,-1.607422 -0.9453126,-3.476563 c -0.2680509,-0.986229 -0.5321309,-1.917705 -0.7402343,-2.625 -0.1040517,-0.353647 -0.1944028,-0.650137 -0.265625,-0.873047 -0.035611,-0.111454 -0.065464,-0.205195 -0.091797,-0.279296 -0.026333,-0.0741 -0.035843,-0.112044 -0.080078,-0.191407 -0.050296,-0.09018 -0.145185,-0.167316 -0.2304688,-0.199218 -0.085284,-0.0319 -0.1567093,-0.03173 -0.2148437,-0.02734 -0.1162689,0.0088 -0.1984914,0.03997 -0.2871094,0.07813 -0.177236,0.07631 -0.3724581,0.194098 -0.6152344,0.357422 -0.4855525,0.326647 -1.1411536,0.834446 -1.9375,1.501953 -1.1687278,0.979606 -1.82085507,1.501234 -2.23046872,1.734375 -0.40961366,0.23314 -0.52591136,0.219322 -0.9296875,0.154297 -5.16904638,-0.832414 -8.00897298,-0.736552 -11.77148438,0.408203 -1.462032,0.444833 -2.362204,0.663743 -3.058594,0.691406 -0.696389,0.02766 -1.214451,-0.118004 -2.015625,-0.464844 -0.345564,-0.149577 -0.651011,-0.266105 -0.867187,-0.373046 -0.216176,-0.106942 -0.321731,-0.205215 -0.341797,-0.242188 -0.02007,-0.03697 -0.04108,-0.06708 0.05859,-0.269531 0.09967,-0.20245 0.331889,-0.518771 0.728515,-0.941407 1.586505,-1.690543 5.714742,-5.08608 14.2734378,-12.189453 6.0443763,-5.016597 9.8928744,-8.178631 12.3085937,-10.089843 1.2078595,-0.955607 2.0586375,-1.59844 2.6386715,-2 0.290018,-0.200781 0.513513,-0.341522 0.671875,-0.427735 0.158363,-0.08621 0.263099,-0.109706 0.238282,-0.107422 z m 78.753906,-25.207031 c 0.01463,0 -0.0128,-0.01937 0.05078,0.0293 0.06358,0.04867 0.18746,0.176292 0.365234,0.416016 0.355549,0.479447 0.93118,1.399922 1.888672,3.0625 1.914983,3.325155 5.3759,9.627539 11.873052,21.49414 3.79398,6.92944 7.24383,13.292235 9.74609,17.960938 1.25113,2.334351 2.26595,4.244925 2.9668,5.589844 0.35042,0.672459 0.62146,1.204684 0.80469,1.574218 0.0916,0.184767 0.16075,0.327909 0.20507,0.425782 0.0169,0.03726 0.0264,0.06067 0.0352,0.08203 -0.003,0.04152 -0.007,0.0902 -0.008,0.0918 -0.001,0.0023 0.0159,-0.0063 -0.0274,0.01758 -0.0865,0.04779 -0.40872,0.13119 -0.98047,0.207031 -3.15894,0.419047 -5.50058,2.20424 -7.17968,5.431641 -0.47423,0.91154 -0.82571,1.645753 -1.02344,1.816406 -0.0989,0.08533 -0.0648,0.08559 -0.18359,0.0332 -0.11878,-0.05238 -0.36388,-0.253255 -0.67969,-0.650391 -1.26325,-1.588543 -3.69488,-6.115221 -8.89453,-15.615234 -2.468598,-4.510228 -4.743944,-8.664805 -6.42188,-11.726562 -0.838968,-1.530879 -1.528106,-2.789928 -2.017578,-3.681641 -0.489473,-0.891714 -0.766081,-1.395305 -0.820313,-1.490235 -0.05114,-0.0895 -0.167048,-0.201447 -0.310547,-0.232421 -0.143498,-0.03097 -0.261647,0.009 -0.345703,0.05078 -0.16811,0.08362 -0.279418,0.198802 -0.433593,0.36914 -0.308352,0.340677 -0.739184,0.91817 -1.402344,1.875 -1.326321,1.913661 -3.559074,5.326204 -7.332032,11.150391 -3.797108,5.861456 -6.051016,9.301893 -7.4375,11.300781 -1.386483,1.998889 -1.967901,2.524641 -2.099609,2.572266 -0.587342,0.212388 -1.001028,0.289474 -1.494141,0.242188 -0.493112,-0.04729 -1.086349,-0.231866 -1.964843,-0.59375 -1.891859,-0.779328 -2.953983,-0.84568 -4.808594,-0.294922 -1.941329,0.576521 -3.527822,1.839846 -4.486328,3.578125 -0.364496,0.661018 -0.588184,1.13864 -0.714844,1.814453 -0.12666,0.675812 -0.163802,1.528961 -0.208984,3.039062 -0.04792,1.6012449 -0.08631,2.4355631 -0.158203,2.7656252 -0.03595,0.1650311 -0.05822,0.1518848 -0.02539,0.1308594 0.03283,-0.021025 -0.0028,0 -0.146484,0 -0.135991,0 -0.209343,-0.022413 -0.386719,-0.203125 -0.177376,-0.1807119 -0.413643,-0.5266832 -0.722656,-1.0742187 -0.475189,-0.8420169 -1.260465,-1.9616439 -1.808594,-2.5683589 -0.251604,-0.278498 -0.467819,-0.583605 -0.615234,-0.853516 -0.139988,-0.256311 -0.196743,-0.474596 -0.203126,-0.558594 0.0079,-0.01792 0.01206,-0.03118 0.02539,-0.05859 0.04456,-0.09159 0.118545,-0.228933 0.216797,-0.404296 0.196503,-0.350728 0.494157,-0.855971 0.890625,-1.509766 0.792937,-1.30759 1.978283,-3.20819 3.541016,-5.677734 3.125466,-4.939089 7.762142,-12.154908 13.796875,-21.472657 8.508381,-13.137096 13.158634,-20.29514 15.759765,-24.162109 1.300566,-1.933485 2.091296,-3.046819 2.582031,-3.658203 0.245368,-0.305692 0.418314,-0.484668 0.521485,-0.570313 0.10317,-0.08564 0.104816,-0.06445 0.07227,-0.06445 z M 285.78711,-98.744141 c -0.0125,0.114098 -0.0266,0.235399 -0.0566,0.429688 -0.0965,0.62556 -0.23411,2.329279 -0.32031,3.876953 -0.0809,1.45356 -0.94459,7.594311 -1.91211,13.492188 -0.86867,5.295436 -1.31296,7.985855 -1.60938,9.318359 -0.14821,0.666252 -0.27637,0.995075 -0.33203,1.080078 -0.0278,0.0425 -0.0135,0.01967 0.002,0.01367 0.0155,-0.006 -3.5e-4,0.002 -0.0703,0.002 0.0436,0 -0.0997,-0.02486 -0.28516,-0.121094 -0.18545,-0.09624 -0.43603,-0.248845 -0.73242,-0.451172 -0.59277,-0.404653 -1.37813,-1.007969 -2.30468,-1.77539 -0.81124,-0.671901 -1.55748,-1.270207 -2.11133,-1.697266 -0.27693,-0.213529 -0.50492,-0.38394 -0.67383,-0.501953 -0.0845,-0.05901 -0.15338,-0.103954 -0.2168,-0.140625 -0.0317,-0.01834 -0.0582,-0.03588 -0.10742,-0.05469 -0.0246,-0.0094 -0.0527,-0.02125 -0.11523,-0.02734 -0.0156,-0.0015 -0.0349,-0.0028 -0.0566,-0.002 -0.0217,8.75e-4 -0.0755,0.01155 -0.0762,0.01172 -6.9e-4,1.68e-4 -0.10103,0.03876 -0.10156,0.03906 -5.3e-4,3.01e-4 -0.10314,0.0855 -0.10351,0.08594 -0.0337,0.03942 -0.0414,0.04939 -0.10547,0.126954 -0.064,0.07756 -0.15736,0.192034 -0.2793,0.339843 -0.24388,0.295618 -0.6013,0.726722 -1.05859,1.28125 -0.9146,1.109057 -2.23001,2.707057 -3.85157,4.673828 -3.24311,3.933544 -7.70476,9.344915 -12.60156,15.285157 -4.8966,5.940005 -9.44122,11.437912 -12.81641,15.509765 -1.68759,2.035927 -3.08258,3.716089 -4.08398,4.916016 -0.5007,0.599963 -0.90286,1.079487 -1.19336,1.423828 -0.2905,0.344341 -0.48551,0.569738 -0.51367,0.599609 -0.20076,0.212992 -0.44624,0.413982 -0.66406,0.552735 -0.21782,0.138752 -0.43797,0.195379 -0.42383,0.195312 -0.63588,0.0031 -1.41878,0.340113 -2.25,0.794922 -0.83123,0.454809 -1.66675,1.037761 -2.22656,1.623047 -1.27433,1.33229 -1.87048,2.737829 -2.09571,4.892578 -0.0767,0.733336 -0.14583,1.119754 -0.34375,1.525391 -0.19792,0.405637 -0.5524,0.865606 -1.22656,1.666015 -0.40583,0.481823 -0.80143,0.931653 -1.10742,1.263672 -0.153,0.16601 -0.2834,0.302539 -0.37891,0.396485 -0.0478,0.04697 -0.0871,0.08267 -0.11133,0.103515 -0.0242,0.02084 -0.0615,0.03015 0.0234,-0.0059 -0.47632,0.201922 -0.96766,0.659631 -1.45703,1.199219 -0.48937,0.539587 -0.93904,1.147572 -1.18164,1.685546 -0.15646,0.346969 -0.31099,0.577785 -0.44336,0.697266 -0.13237,0.119481 -0.22164,0.152198 -0.39258,0.138672 -0.34187,-0.02705 -1.02975,-0.409095 -2.04297,-1.248047 -1.72936,-1.431902 -5.56324,-3.472092 -7.67187,-4.078125 -0.47786,-0.137331 -0.71639,-0.2499 -0.7793,-0.308594 -0.0629,-0.05869 -0.0762,-0.09617 -0.0762,-0.380859 0,0.109173 -0.0114,0.05897 0.0215,-0.0059 0.0329,-0.06483 0.0932,-0.16776 0.17969,-0.300782 0.17291,-0.266043 0.45139,-0.656029 0.84766,-1.183593 0.79254,-1.055128 2.05827,-2.664119 3.9375,-4.996094 3.75845,-4.663951 9.96848,-12.2248 19.76562,-24.09375 13.66252,-16.551692 25.3025,-30.649723 25.84766,-31.306641 l 1.25391,-1.511718 -3.22461,-2.63086 c -1.13433,-0.925413 -2.02819,-1.586071 -2.45508,-2.060547 -0.21345,-0.237238 -0.29075,-0.409058 -0.29688,-0.505859 -0.006,-0.0968 0.0224,-0.195245 0.22852,-0.386719 0.41215,-0.382948 1.49047,-0.92571 3.32617,-1.654297 1.8357,-0.728587 4.43514,-1.670299 7.96484,-2.984375 3.69077,-1.374031 6.73132,-2.471026 8.95704,-3.234375 1.11285,-0.381674 2.022,-0.679232 2.70507,-0.886718 0.68308,-0.207487 1.16547,-0.322997 1.31055,-0.337891 0.80047,-0.08218 1.69607,-0.223916 2.12891,-0.357422 0.0211,-0.0065 0.0197,-0.0041 0.0391,-0.0098 z" />
    </g>
    <path
       style="color:#000000;font-style:normal;font-variant:normal;font-weight:normal;font-stretch:normal;font-size:medium;line-height:normal;font-family:sans-serif;font-variant-ligatures:normal;font-variant-position:normal;font-variant-caps:normal;font-variant-numeric:normal;font-variant-alternates:normal;font-feature-settings:normal;text-indent:0;text-align:start;text-decoration:none;text-decoration-line:none;text-decoration-style:solid;text-decoration-color:#000000;letter-spacing:normal;word-spacing:normal;text-transform:none;writing-mode:lr-tb;direction:ltr;text-orientation:mixed;dominant-baseline:auto;baseline-shift:baseline;text-anchor:start;white-space:normal;shape-padding:0;clip-rule:nonzero;display:inline;overflow:visible;visibility:visible;opacity:1;isolation:auto;mix-blend-mode:normal;color-interpolation:sRGB;color-interpolation-filters:linearRGB;solid-color:#000000;solid-opacity:1;vector-effect:none;fill:#fdd243;fill-opacity:0;fill-rule:nonzero;stroke:#fdd243;stroke-width:0.76700002;stroke-linecap:butt;stroke-linejoin:miter;stroke-miterlimit:4;stroke-dasharray:none;stroke-dashoffset:0;stroke-opacity:0.98994976;color-rendering:auto;image-rendering:auto;shape-rendering:auto;text-rendering:auto;enable-background:accumulate"
       d="m 155.06836,68.455075 c 0.003,0.0032 0.007,0.0023 0.01,0.0059 0.0374,0.0427 0.0352,0.07979 0.0352,0.0625 0,-0.03475 -0.0391,-0.03681 -0.0449,-0.06836 z"
       id="path826" />
  </g>
</svg>
