<?xml version="1.0" encoding="UTF-8" standalone="no"?>
<!-- Created with Inkscape (http://www.inkscape.org/) -->

<svg
   xmlns:dc="http://purl.org/dc/elements/1.1/"
   xmlns:cc="http://creativecommons.org/ns#"
   xmlns:rdf="http://www.w3.org/1999/02/22-rdf-syntax-ns#"
   xmlns:svg="http://www.w3.org/2000/svg"
   xmlns="http://www.w3.org/2000/svg"
   xmlns:sodipodi="http://sodipodi.sourceforge.net/DTD/sodipodi-0.dtd"
   xmlns:inkscape="http://www.inkscape.org/namespaces/inkscape"
   width="210mm"
   height="297mm"
   viewBox="0 0 210 297"
   version="1.1"
   id="svg8"
   sodipodi:docname="website.svg"
   inkscape:version="0.92.4 (5da689c313, 2019-01-14)">
  <defs
     id="defs2" />
  <sodipodi:namedview
     id="base"
     pagecolor="#ffffff"
     bordercolor="#666666"
     borderopacity="1.0"
     inkscape:pageopacity="0.0"
     inkscape:pageshadow="2"
     inkscape:zoom="0.35"
     inkscape:cx="40.1246"
     inkscape:cy="2965.2906"
     inkscape:document-units="mm"
     inkscape:current-layer="layer1"
     showgrid="false"
     inkscape:window-width="1366"
     inkscape:window-height="705"
     inkscape:window-x="-8"
     inkscape:window-y="-8"
     inkscape:window-maximized="1"
     inkscape:pagecheckerboard="true" />
  <metadata
     id="metadata5">
    <rdf:RDF>
      <cc:Work
         rdf:about="">
        <dc:format>image/svg+xml</dc:format>
        <dc:type
           rdf:resource="http://purl.org/dc/dcmitype/StillImage" />
        <dc:title></dc:title>
      </cc:Work>
    </rdf:RDF>
  </metadata>
  <g
     inkscape:label="Layer 1"
     inkscape:groupmode="layer"
     id="layer1">
    <path
       style="fill:#ff6600;stroke-width:0.26458335"
       d="m 116.1837,123.519 c -1.6769,-1.48154 -3.63815,-3.25262 -4.35832,-3.93574 -0.72017,-0.68312 -1.34267,-1.20877 -1.38333,-1.1681 -0.0407,0.0407 0.10358,0.65911 0.32055,1.37432 0.21697,0.71522 0.39577,1.393 0.39735,1.50617 0.002,0.11318 -5.7419,0.17271 -12.763283,0.1323 l -12.766154,-0.0735 -0.865886,-0.61759 c -0.476238,-0.33968 -1.101316,-1.07908 -1.389063,-1.64311 -0.503243,-0.98643 -0.523177,-1.60577 -0.523177,-16.25485 V 87.609569 l 0.644564,-1.021055 c 0.35451,-0.56158 1.053173,-1.273589 1.552584,-1.582242 0.897962,-0.554971 1.077672,-0.561177 16.222635,-0.560199 17.20439,0.0011 16.10706,-0.123053 17.73135,2.006329 l 0.75825,0.994037 v 19.313171 c 0,12.65243 -0.0912,19.33731 -0.26458,19.38313 -0.14552,0.0385 -1.6366,-1.14221 -3.31349,-2.62374 z M 95.582643,109.76863 c -1.12894,-0.59081 -2.588239,-1.95167 -2.349184,-2.19073 0.09211,-0.0921 0.621788,0.0745 1.177057,0.37022 1.701358,0.90612 4.355551,1.67334 6.301254,1.82145 2.05884,0.15671 4.14183,-0.27008 6.84715,-1.40295 2.60467,-1.09073 2.80025,-1.11549 2.01639,-0.25534 -0.3638,0.3992 -1.19724,1.03335 -1.85208,1.4092 -0.65484,0.37585 -1.23951,0.72098 -1.29925,0.76695 -0.3091,0.23785 0.95455,1.14516 1.59491,1.14516 1.13503,0 3.55257,-0.99803 4.4514,-1.83766 0.74482,-0.69577 0.80185,-0.87836 0.77769,-2.48954 -0.0291,-1.93825 -0.88559,-5.6833 -1.94844,-8.519462 -0.63974,-1.70714 -0.81853,-1.93767 -2.09459,-2.700919 -1.19583,-0.715256 -3.59839,-1.535759 -3.59839,-1.228892 0,0.05534 0.44649,0.286317 0.99219,0.513285 0.80311,0.334027 1.79478,0.919277 3.2191,1.899786 0.0606,0.0417 0.0477,0.13842 -0.0287,0.21484 -0.0764,0.0764 -0.67207,-0.0896 -1.32367,-0.36889 -2.07597,-0.889869 -5.67364,-1.663473 -7.40702,-1.592729 -1.960443,0.08001 -5.504287,0.88788 -6.942085,1.582549 -0.574547,0.27759 -1.230626,0.50412 -1.457954,0.5034 -0.646911,-0.002 0.974281,-1.208617 2.558722,-1.904309 1.61093,-0.707322 1.872688,-1.150364 0.365475,-0.618588 -1.963832,0.69288 -3.20098,1.677077 -3.770933,2.999917 -1.152035,2.673832 -1.867825,5.328192 -2.139842,7.935162 l -0.284052,2.72232 0.767194,0.81599 c 0.864093,0.91906 2.002653,1.48156 3.942195,1.94766 1.276904,0.30685 1.342373,0.29433 1.882338,-0.35976 l 0.559422,-0.67767 z m 0.824074,-3.27563 c -0.481696,-0.19381 -1.118912,-1.52852 -1.118912,-2.34367 0,-0.89964 1.325401,-2.24174 2.213851,-2.24174 0.960231,0 2.010831,1.02385 2.186971,2.1313 0.27949,1.75721 -1.572334,3.14195 -3.28191,2.45411 z m 7.203443,-0.47234 c -0.98079,-0.9808 -0.90655,-2.52676 0.16462,-3.42809 0.8961,-0.75403 1.19965,-0.81163 2.22423,-0.42208 0.81226,0.30882 1.56598,1.883 1.3086,2.73308 -0.53128,1.75469 -2.47316,2.34137 -3.69745,1.11709 z m 50.07086,17.17024 c -0.69868,-0.19076 -1.77025,-0.6421 -2.38125,-1.00298 -1.08963,-0.64356 -3.03753,-2.46426 -2.81262,-2.62895 0.0628,-0.046 0.85079,-0.77307 1.75106,-1.61572 l 1.63686,-1.5321 1.20698,0.83043 c 1.51742,1.044 3.51169,1.35511 4.50684,0.70307 1.2751,-0.83548 0.57762,-1.98681 -1.45079,-2.39483 -0.50719,-0.10202 -1.68935,-0.43266 -2.62702,-0.73477 -3.7509,-1.20847 -5.75377,-5.0315 -4.37047,-8.34221 1.29611,-3.10203 5.52812,-4.74779 9.58312,-3.72673 1.34223,0.33798 2.99722,1.35396 4.03283,2.47571 0.63073,0.68319 0.63861,0.7304 0.16955,1.01622 -0.27055,0.16487 -1.08756,0.76699 -1.81557,1.33804 -1.09562,0.85942 -1.39832,0.98419 -1.75705,0.72427 -0.79103,-0.57316 -2.71745,-1.36568 -3.31962,-1.36568 -0.32637,0 -0.85228,0.27556 -1.16869,0.61237 -1.26029,1.34152 -0.49693,2.09522 2.97127,2.93367 2.12679,0.51416 2.77152,0.79716 3.80644,1.67079 1.46941,1.24041 1.87225,2.22418 1.89249,4.62168 0.0179,2.1151 -0.26803,2.9667 -1.39035,4.14145 -1.09486,1.146 -2.33139,1.7683 -4.52416,2.27684 -2.03166,0.47117 -2.21218,0.47115 -3.93985,-5.3e-4 z m 18.07138,0.16033 c -0.21828,-0.14788 -0.70202,-0.2707 -1.07496,-0.27292 -0.94322,-0.006 -3.14975,-1.12483 -3.99919,-2.02845 -1.46466,-1.55809 -1.80502,-3.08076 -1.80502,-8.07502 0,-4.97221 0.19843,-6.04753 1.38063,-7.48174 2.79076,-3.38567 8.14441,-4.10492 11.50188,-1.54524 1.06906,0.81503 2.46333,2.60217 2.46333,3.15744 0,0.34428 -1.09221,0.92344 -3.32359,1.7624 -1.01888,0.38308 -1.09169,0.37672 -1.40351,-0.12257 -0.55933,-0.89564 -2.09206,-1.38303 -3.25426,-1.03483 -1.65152,0.49481 -1.80823,0.95039 -1.80823,5.25672 v 3.79794 l 0.7734,0.7734 c 0.45957,0.45956 1.05351,0.77339 1.46371,0.77339 1.06357,0 2.55738,-0.72662 2.71239,-1.31937 0.15301,-0.58514 0.37999,-0.64935 1.07336,-0.30365 0.25269,0.12598 1.26311,0.6176 2.24537,1.09249 0.98227,0.47489 1.78594,0.94063 1.78594,1.03499 0,0.7051 -2.02425,2.86708 -3.30729,3.53232 -1.73696,0.90058 -4.75198,1.45796 -5.42396,1.0027 z m 15.875,-0.1361 c -2.20564,-0.52488 -3.20245,-1.04893 -4.38307,-2.30429 -1.68586,-1.79257 -1.74344,-2.06581 -1.71275,-8.12841 0.0257,-5.07508 0.0649,-5.48924 0.61424,-6.48383 0.67508,-1.22232 2.80504,-2.94119 4.15866,-3.35602 1.55439,-0.47636 4.60003,-0.59681 6.12392,-0.2422 1.82801,0.42538 4.02194,1.86786 4.93243,3.243 l 0.71761,1.08383 0.0632,5.79746 c 0.0408,3.73725 -0.0375,5.98568 -0.22027,6.32714 -0.5512,1.02992 -2.20181,2.64494 -3.26447,3.19408 -1.9245,0.9945 -4.93751,1.36708 -7.0295,0.86924 z m 4.16719,-5.42964 0.85989,-0.52429 v -4.36342 c 0,-4.31094 -0.008,-4.3684 -0.63347,-4.77848 -1.44778,-0.94862 -3.96506,-0.6953 -4.78967,0.48199 -0.59482,0.84924 -0.57278,7.75525 0.0275,8.61226 0.82922,1.18387 3.06891,1.46629 4.53576,0.57194 z m -68.46094,2.79265 v -2.49612 l 4.47734,-0.0836 c 4.31888,-0.0806 4.50149,-0.10627 5.15938,-0.725 0.67108,-0.63114 0.68203,-0.70197 0.68203,-4.41257 0,-3.75888 -0.002,-3.77292 -0.69714,-4.31951 -0.54555,-0.42912 -1.07773,-0.54845 -2.4474,-0.54875 l -1.75026,-2.6e-4 0.0793,4.12518 c 0.064,3.32859 0.0129,4.08578 -0.26458,3.92115 -0.18914,-0.1122 -1.44361,-1.16469 -2.7877,-2.33886 l -2.44381,-2.13495 -0.004,-4.452 -0.004,-4.452 5.09323,0.10871 c 2.80127,0.0598 5.35645,0.18023 5.67817,0.26763 1.10049,0.29896 3.26691,1.91226 3.94737,2.93953 0.92268,1.39293 1.24461,3.92371 1.08108,8.49855 -0.14999,4.19613 -0.4005,5.02997 -1.96769,6.54952 -1.76455,1.71092 -3.23967,2.04943 -8.93076,2.04943 h -4.9014 z m 17.99166,-7.6996 v -10.19571 l 2.71198,0.0754 2.71198,0.0754 0.0693,10.12031 0.0693,10.12031 h -2.78127 -2.78127 z m 59.26667,-0.0203 v -10.216 l 5.6224,0.0983 c 5.37465,0.094 5.66903,0.12628 6.68073,0.73312 1.25965,0.75556 2.51354,1.86946 2.51354,2.2329 0,0.14322 0.17864,0.45778 0.39697,0.69904 0.51781,0.57217 0.7505,2.62406 0.53142,4.68619 -0.20056,1.88795 -1.09922,3.45218 -2.64578,4.60532 l -0.96556,0.71994 0.88721,1.0135 c 0.48797,0.55742 1.59293,1.90646 2.45546,2.99786 0.86254,1.09141 1.66227,2.02407 1.77718,2.07257 0.11491,0.0485 0.20893,0.19734 0.20893,0.33073 0,0.13451 -1.52651,0.24253 -3.42723,0.24253 -3.25367,0 -3.44844,-0.0301 -3.84609,-0.59531 -2.08507,-2.96342 -4.22276,-5.75469 -4.40723,-5.75469 -0.12414,0 -0.2257,1.42875 -0.2257,3.175 v 3.175 h -2.77812 -2.77813 z m 9.77928,-1.47555 c 0.34431,-0.36958 0.53947,-0.93845 0.53947,-1.5725 0,-1.39442 -0.69082,-1.8172 -2.96929,-1.8172 h -1.79321 v 1.98438 1.98437 h 1.84178 c 1.55395,0 1.92608,-0.0905 2.38125,-0.57905 z m 8.47697,9.20031 v -2.49124 l 4.47073,-0.0884 c 5.90994,-0.11692 5.58344,0.17392 5.58344,-4.97368 0,-4.84887 -0.003,-4.85413 -2.74521,-4.99262 l -2.00356,-0.10117 -0.073,4.09488 -0.073,4.09487 -2.57969,-2.27543 -2.57969,-2.27544 v -4.46431 -4.46431 l 5.22552,0.10375 c 4.72952,0.0939 5.32891,0.15811 6.31468,0.67642 1.61609,0.84974 2.63077,1.79332 3.39087,3.1533 0.66482,1.18949 0.67935,1.32614 0.67935,6.39029 0,5.76988 -0.1713,6.5014 -1.91536,8.17913 -1.68816,1.62396 -3.04614,1.92524 -8.67777,1.92524 h -5.01729 z m -95.67359,-20.944362 -0.82047,-0.4048 0.41211,-1.7224 c 0.36652,-1.531859 0.47193,-1.704413 0.95276,-1.559762 1.61813,0.486792 2.39555,0.452092 2.92336,-0.130474 0.48464,-0.534911 0.53434,-1.0229 0.60898,-5.979287 l 0.0813,-5.396841 h 2.00082 2.00083 l -0.10586,5.909843 c -0.10167,5.675759 -0.13199,5.960631 -0.76568,7.192001 -0.90193,1.75262 -2.33293,2.510812 -4.72334,2.502552 -1.02003,-0.004 -2.08501,-0.174112 -2.56479,-0.410832 z m 14.97396,0.18539 c -2.15824,-0.70776 -4.1685,-2.65693 -4.87321,-4.725137 -0.22921,-0.672695 -0.41558,-2.065075 -0.41416,-3.094178 0.006,-4.317403 3.01619,-7.568261 6.99468,-7.553828 3.49249,0.01267 5.96295,2.102181 6.92491,5.857071 0.91103,3.556111 -0.76182,7.369122 -3.94557,8.993352 -1.16784,0.59579 -3.62733,0.870102 -4.68665,0.52272 z m 3.70478,-4.489228 c 1.91839,-1.91839 1.5022,-5.744747 -0.7406,-6.809029 -2.22073,-1.053805 -4.28538,0.672604 -4.28538,3.583324 0,2.61461 1.0698,3.977647 3.12193,3.977647 0.9131,0 1.30809,-0.155989 1.90405,-0.751942 z m 36.42059,4.464928 c -1.13451,-0.36391 -2.39483,-1.30917 -3.0813,-2.31099 -1.05025,-1.532747 -1.32361,-3.254909 -1.32361,-8.338824 v -4.70484 h 1.96834 1.96834 l 0.0822,5.008573 c 0.0757,4.610307 0.12654,5.067902 0.63991,5.754688 0.46248,0.618712 0.75435,0.746115 1.70925,0.746115 1.01419,0 1.22379,-0.107228 1.75738,-0.899023 0.57675,-0.855835 0.60586,-1.132289 0.60586,-5.754688 v -4.855665 h 2.00749 2.0075 l -0.0893,5.490105 -0.0893,5.490104 -0.82181,1.455205 c -1.11567,1.97553 -2.65494,2.93475 -4.91873,3.06517 -0.91728,0.0528 -2.0073,-0.0128 -2.42226,-0.14593 z m 12.9253,-0.14729 c -0.7276,-0.20204 -1.38244,-0.37304 -1.4552,-0.38001 -0.0728,-0.007 -0.51213,-0.24427 -0.97638,-0.52734 l -0.84408,-0.51467 0.81502,-1.83433 0.81503,-1.834333 1.66388,0.778626 c 1.83299,0.857759 3.95048,0.979617 3.95048,0.227339 0,-0.452464 -0.72202,-0.859586 -2.91041,-1.641076 -0.96366,-0.344128 -1.97741,-0.954621 -2.57969,-1.553527 -0.94867,-0.943343 -0.99219,-1.064 -0.99219,-2.750679 0,-1.004411 0.16073,-2.071725 0.37326,-2.478524 0.50116,-0.959299 1.70808,-2.072677 2.62053,-2.417424 1.20037,-0.453532 3.72667,-0.334058 5.26452,0.248969 2.29832,0.87134 2.2534,0.785624 1.40894,2.688685 -0.40898,0.921647 -0.76875,1.707201 -0.7995,1.745676 -0.0308,0.03847 -0.72667,-0.237126 -1.54647,-0.612445 -1.76986,-0.810268 -3.22024,-0.808836 -3.22024,0.0032 0,0.582402 0.60124,0.948742 2.91042,1.773368 2.12825,0.760012 3.46259,2.089827 3.70255,3.690004 0.65183,4.346761 -3.09219,6.806953 -8.20047,5.388511 z m 18.916,0.16972 c -3.1083,-1.01055 -5.02366,-3.639526 -5.22739,-7.175 -0.0912,-1.582257 5.3e-4,-2.288604 0.45222,-3.485687 1.77049,-4.691497 7.37664,-6.258266 10.99539,-3.072916 0.63806,0.561644 1.49422,1.701546 1.90257,2.533116 1.00471,2.045976 1.03686,5.065041 0.0752,7.057032 -0.76496,1.584485 -2.15491,3.025995 -3.5748,3.707385 -1.14489,0.54943 -3.5707,0.778242 -4.62315,0.43607 z m 3.64921,-4.389792 c 2.02336,-1.702542 1.61305,-5.97663 -0.66513,-6.928515 -2.35781,-0.985154 -4.30528,0.723261 -4.30528,3.776796 0,1.324022 0.56202,2.647062 1.41762,3.33719 0.86675,0.699121 2.60964,0.608131 3.55279,-0.185471 z m -65.29542,-3.314375 v -7.672917 h 1.98438 1.98437 v 7.672917 7.672917 h -1.98437 -1.98438 z m 6.35,0 v -7.672917 h 1.54356 1.54356 l 2.62363,3.698668 c 1.443,2.034266 2.71293,3.701141 2.82207,3.704166 0.10914,0.003 0.19843,-1.661375 0.19843,-3.698667 v -3.704167 h 1.98438 1.98437 v 7.672917 7.672917 h -1.6764 -1.67641 l -2.68922,-3.629884 -2.68922,-3.629884 v 3.629884 3.629884 h -1.98437 -1.98438 z m 65.88126,0 v -7.672917 h 1.5617 1.5617 l 2.53965,3.556455 c 1.39681,1.95605 2.65858,3.629952 2.80393,3.719782 0.17118,0.105797 0.26427,-1.146925 0.26427,-3.556455 v -3.719782 h 1.98437 1.98438 v 7.672917 7.672917 h -1.66812 -1.66811 l -2.63137,-3.599262 -2.63136,-3.599263 -0.0736,3.599263 -0.0736,3.599262 h -1.9769 -1.97691 z"
       id="path852"
       inkscape:connector-curvature="0"
       inkscape:export-xdpi="53.109936"
       inkscape:export-ydpi="53.109936" />
    <path
       style="fill:#ff6600;stroke-width:0.26458335;fill-opacity:1"
       d="m 210.15618,241.81746 c -7.25222,-1.08639 -11.97278,-2.94312 -14.86733,-5.84772 -1.64226,-1.64797 -1.86543,-2.50604 -1.87193,-7.19746 l -0.006,-4.19374 1.42981,1.30678 c 2.66123,2.43221 7.65322,4.49877 13.38686,5.54183 3.53441,0.64298 13.1429,0.64037 16.59884,-0.004 3.22665,-0.60209 6.39477,-1.53535 8.64862,-2.54768 2.08616,-0.93703 5.03751,-2.95424 5.45003,-3.72504 0.62161,-1.1615 0.78792,-0.41623 0.78792,3.53081 0,3.82373 -0.038,4.12545 -0.68365,5.42101 -0.86155,1.72889 -2.47104,3.15299 -5.08022,4.49505 -6.17939,3.17842 -15.58036,4.45095 -23.79314,3.22066 z m -54.13952,-4.13304 c -0.3369,-0.3369 -0.17377,-1.33146 0.28664,-1.74744 0.25466,-0.23009 0.93527,-0.4569 1.51246,-0.50403 l 1.04944,-0.0857 0.79269,-3.24389 0.79269,-3.24388 11.48754,0.0689 11.48753,0.0689 0.77999,3.22749 0.77998,3.22749 1.22763,0.0798 c 1.00268,0.0652 1.29789,0.20552 1.61114,0.76591 0.21093,0.37736 0.30781,0.88338 0.21529,1.12448 -0.15401,0.40135 -1.50588,0.43837 -16.00742,0.43837 -8.71156,0 -15.91858,-0.0794 -16.0156,-0.17639 z m 56.04757,-7.41257 c -8.69257,-0.75291 -16.25634,-4.03119 -18.10318,-7.84625 -0.48717,-1.00637 -0.54994,-1.62305 -0.54994,-5.4032 v -4.26717 l 1.35188,1.29617 c 4.55835,4.37051 15.81257,7.01834 25.9002,6.09366 7.80972,-0.71587 14.78352,-3.15951 17.71284,-6.20662 0.50149,-0.52166 1.00751,-0.94846 1.12448,-0.94846 0.11698,0 0.21268,1.78723 0.21268,3.97163 0,4.47888 -0.31039,5.58154 -2.06513,7.33628 -4.31717,4.31717 -15.24684,6.86931 -25.58383,5.97396 z m 8.40053,-4.62247 c 0.47757,-0.5644 0.6065,-1.70538 0.25514,-2.25796 -0.10987,-0.17279 -0.52477,-0.43774 -0.92199,-0.58876 -2.01237,-0.7651 -3.54083,1.82406 -1.85815,3.14765 0.8377,0.65893 1.81094,0.54294 2.525,-0.30093 z m -5.62172,-0.0925 c 0.18152,-0.21873 0.33005,-0.70561 0.33005,-1.08196 0,-1.23564 -0.53279,-1.45723 -4.06609,-1.69114 -1.90982,-0.12644 -4.55984,-0.52028 -6.3543,-0.94437 -1.69301,-0.40012 -3.27329,-0.65262 -3.51173,-0.56112 -1.18358,0.45418 -0.62741,2.31392 0.87134,2.9136 0.8465,0.3387 4.88756,1.26633 6.90922,1.58602 0.3638,0.0575 1.7482,0.12081 3.07645,0.14063 1.85892,0.0277 2.491,-0.0555 2.74506,-0.36166 z m 11.31026,-0.47259 c 1.13277,-1.03681 0.51978,-3.09847 -0.92126,-3.09847 -0.8425,0 -2.1876,1.3585 -2.1876,2.2094 0,0.85837 1.19289,1.83304 1.95981,1.60128 0.30455,-0.092 0.82163,-0.41253 1.14905,-0.71221 z m 5.37816,-1.22604 c 0.98604,-0.98603 1.05048,-2.20785 0.14765,-2.7994 -0.78149,-0.51206 -1.7094,-0.21293 -2.51451,0.8106 -0.67057,0.8525 -0.70753,1.38107 -0.15203,2.17416 0.57557,0.82175 1.58615,0.74739 2.51889,-0.18536 z m -103.45323,2.98668 c -0.54754,-0.69609 -0.54837,-0.74306 -0.54837,-31.08437 v -30.38723 l 0.77194,-0.86407 0.77194,-0.86407 h 13.18483 c 11.02862,0 13.17227,0.0593 13.10803,0.3627 -0.0422,0.19948 -0.12021,0.91386 -0.17327,1.5875 l -0.0965,1.2248 -11.79913,0.0689 -11.79913,0.0689 v 24.20666 24.20665 h 29.76562 29.76563 v 6.08541 6.08542 H 159.82823 128.6266 Z m 45.19444,-4.2638 c 0.30672,-0.25466 0.6315,-0.8452 0.72172,-1.31232 0.13819,-0.71544 0.0324,-0.98093 -0.67126,-1.68459 -0.70366,-0.70366 -0.96916,-0.80945 -1.6846,-0.67127 -1.08894,0.21033 -1.77534,1.04427 -1.77534,2.15693 0,1.62524 2.13329,2.57082 3.40948,1.51125 z m 38.65927,-4.21152 c -8.87767,-0.88145 -16.13124,-4.05004 -17.97089,-7.85025 -0.4852,-1.0023 -0.54994,-1.62453 -0.54994,-5.28583 0,-3.71817 0.19063,-4.88447 0.61683,-3.77381 0.22723,0.59217 2.77691,2.40095 4.80713,3.41027 11.28552,5.61055 31.70831,4.29952 39.16349,-2.51409 0.76557,-0.69969 1.46455,-1.27216 1.55329,-1.27216 0.0887,0 0.16134,1.77139 0.16134,3.93643 0,5.3568 -0.5387,6.57581 -3.92335,8.87791 -3.15248,2.14419 -7.66113,3.58985 -13.27294,4.25584 -2.97509,0.35308 -8.14097,0.45834 -10.58496,0.21569 z m 8.2987,-4.07591 c 1.37546,-1.08194 0.67646,-3.1558 -1.06366,-3.1558 -1.81997,0 -2.63485,2.06351 -1.24623,3.1558 0.38343,0.3016 0.90315,0.54837 1.15494,0.54837 0.2518,0 0.77152,-0.24677 1.15495,-0.54837 z m -5.25506,-0.60654 c 0.30988,-0.47295 0.34597,-0.79419 0.14775,-1.31553 -0.30641,-0.80592 -0.48441,-0.85333 -4.5143,-1.20243 -1.67349,-0.14496 -4.33319,-0.5685 -5.91044,-0.94119 -3.50315,-0.82775 -3.55717,-0.82848 -3.91058,-0.0528 -0.46755,1.02616 0.30735,2.20004 1.68685,2.55537 0.61749,0.15906 1.47989,0.39922 1.91646,0.53369 1.76268,0.54296 5.17052,1.00249 7.60067,1.02491 2.42679,0.0224 2.59697,-0.012 2.98359,-0.602 z m 10.69577,0.23865 c 0.83571,-0.43216 1.07726,-0.88279 1.07726,-2.0097 0,-1.60503 -2.07523,-1.98395 -3.17919,-0.5805 -0.72102,0.91663 -0.66024,1.77416 0.17216,2.42892 0.8297,0.65264 0.95874,0.66343 1.92977,0.16128 z m 5.89143,-1.64678 c 1.37928,-1.32144 0.71489,-3.38153 -0.98571,-3.05644 -0.80334,0.15357 -1.97638,1.48635 -1.97638,2.24551 0,0.78031 0.75425,1.52189 1.54789,1.52189 0.36966,0 1.00605,-0.31994 1.4142,-0.71096 z m -89.18415,0.66625 c -0.75046,-0.37146 -1.43282,-1.00045 -1.93725,-1.78572 -0.70049,-1.09048 -0.76939,-1.39023 -0.68576,-2.98331 0.0791,-1.50735 0.21416,-1.92096 0.90697,-2.77812 1.21485,-1.50305 2.33291,-2.05662 4.15382,-2.05662 h 1.54813 l 7.66686,-8.05502 c 6.33301,-6.65363 7.63678,-8.15041 7.49395,-8.60336 -0.0951,-0.3016 -0.23031,-1.14367 -0.30046,-1.87127 -0.15865,-1.64566 0.61771,-3.29156 2.11442,-4.48258 0.92488,-0.73598 1.19162,-0.80909 2.95201,-0.80909 1.76039,0 2.02713,0.0731 2.952,0.80909 1.94591,1.54847 2.67988,4.03016 1.80865,6.11531 l -0.39872,0.95428 1.12632,1.22127 c 0.61948,0.6717 2.30298,2.49794 3.7411,4.05831 l 2.61478,2.83703 0.73436,-0.61793 c 1.36883,-1.15179 3.62757,-1.38681 5.56878,-0.57942 0.29002,0.12062 1.43753,-0.66188 3.70416,-2.52592 1.80619,-1.48538 3.43281,-2.81499 3.61471,-2.95469 0.25591,-0.19653 0.33073,0.0988 0.33073,1.30533 v 1.55933 l -2.76914,2.3437 c -2.16199,1.82984 -2.72127,2.43774 -2.55081,2.77255 0.7619,1.49649 0.47445,3.74337 -0.67289,5.25993 -1.40489,1.85699 -4.31031,2.47443 -6.46677,1.37428 -1.45763,-0.74363 -2.62111,-2.60938 -2.62325,-4.20664 -0.002,-1.3026 0.30615,-0.91312 -6.66948,-8.43646 l -1.55328,-1.67524 -1.31261,0.33641 c -1.11836,0.28662 -1.50689,0.27428 -2.62537,-0.0834 l -1.31277,-0.41981 -7.53921,7.93543 -7.5392,7.93542 0.53711,0.72649 c 0.79161,1.07071 1.09801,2.74373 0.74531,4.06964 -0.86143,3.23847 -4.34044,4.80404 -7.3572,3.31079 z m 4.26737,-2.87933 c 1.51492,-1.64166 0.33552,-4.21971 -1.93041,-4.21971 -1.72788,0 -3.06492,2.06392 -2.33394,3.60278 0.44344,0.93354 1.96654,1.75632 2.87529,1.55323 0.3638,-0.0813 0.98888,-0.50263 1.38906,-0.9363 z m 37.30625,-9.5149 c 1.53753,-1.68751 0.30011,-4.22981 -2.05879,-4.22981 -0.35466,0 -1.03096,0.345 -1.50289,0.76667 -0.69841,0.62403 -0.85806,0.96469 -0.85806,1.83095 0,2.47612 2.73169,3.48492 4.41974,1.63219 z m -15.92079,-14.26363 c 1.03204,-1.03204 1.07757,-2.55444 0.10547,-3.52654 -0.78826,-0.78826 -1.53234,-0.97425 -2.69367,-0.67332 -2.68113,0.69475 -1.95155,4.97326 0.84806,4.97326 0.71573,0 1.16755,-0.20081 1.74014,-0.7734 z m 41.56915,19.95386 c -7.8479,-1.19787 -13.97291,-4.18533 -15.63956,-7.62817 -0.48785,-1.00776 -0.54994,-1.62253 -0.54994,-5.44467 v -4.30864 l 1.48997,1.36175 c 7.02127,6.41704 25.31931,8.09818 37.40681,3.43674 2.29035,-0.88325 5.73532,-3.03007 6.57473,-4.09721 0.28042,-0.3565 0.58202,-0.64818 0.67021,-0.64818 0.0882,0 0.15775,1.87524 0.15455,4.16719 -0.005,3.61929 -0.0767,4.32373 -0.54501,5.35781 -1.47395,3.25467 -6.40863,5.94814 -13.60608,7.42653 -3.51654,0.72231 -12.32878,0.93045 -15.95568,0.37685 z m 11.06258,-3.57004 c 0.647,-0.647 0.69376,-2.02543 0.0913,-2.69115 -0.96903,-1.07077 -3.26629,-0.059 -3.26629,1.4386 0,1.52363 2.08241,2.34514 3.175,1.25255 z m -5.55625,-0.26459 c 0.68284,-0.68284 0.66949,-1.27174 -0.0461,-2.03347 -0.48693,-0.51831 -0.8425,-0.61317 -2.3151,-0.6176 -2.24498,-0.007 -4.77375,-0.3743 -8.15084,-1.18465 -1.48877,-0.35723 -2.88323,-0.58184 -3.09878,-0.49912 -1.08081,0.41474 -0.60787,2.32007 0.71072,2.8633 1.61754,0.66638 5.40986,1.48583 7.89998,1.70704 4.07034,0.36159 4.4195,0.34514 5.00014,-0.2355 z m 11.17938,-0.2604 c 1.40345,-1.10395 1.02453,-3.17918 -0.5805,-3.17918 -1.12691,0 -1.57755,0.24155 -2.00971,1.07725 -0.51928,1.00419 -0.48788,1.46779 0.14208,2.09775 0.67293,0.67292 1.59596,0.6745 2.44813,0.004 z m 5.63369,-1.44736 c 0.70892,-0.70892 0.88751,-2.18166 0.33193,-2.73724 -0.43406,-0.43406 -1.56476,-0.39921 -2.233,0.0688 -0.84282,0.59034 -1.29222,1.87723 -0.93179,2.66829 0.41344,0.90741 1.9255,0.90746 2.83286,1.1e-4 z m -93.54878,-1.79797 c -1.75087,-0.88557 -2.75098,-2.46963 -2.76247,-4.37545 -0.0116,-1.92131 0.70815,-3.35423 2.22107,-4.42194 0.99003,-0.69869 1.3452,-0.79357 2.96568,-0.79225 l 1.84096,0.002 7.53108,-9.97797 7.53108,-9.97797 -0.52472,-0.86283 c -0.84761,-1.3938 -0.94604,-2.86497 -0.29077,-4.34632 0.6965,-1.57454 1.19232,-2.13653 2.45232,-2.77962 2.2404,-1.14345 5.23136,-0.30373 6.59739,1.85223 l 0.77213,1.21864 9.7149,2.43151 c 9.44226,2.36328 9.72975,2.41804 10.24421,1.95129 1.25627,-1.13976 3.04362,-1.51954 4.6106,-0.97967 l 1.08854,0.37503 2.06433,-2.68283 c 1.13539,-1.47564 3.97466,-5.18323 6.3095,-8.23917 l 4.24516,-5.55625 -0.11861,-1.98437 c -0.11073,-1.85252 -0.0661,-2.0658 0.671,-3.20976 0.58701,-0.91096 1.16541,-1.40316 2.25417,-1.91823 1.75227,-0.82895 2.31627,-0.84982 3.87382,-0.14332 1.47594,0.66948 2.04918,1.18086 2.64646,2.36089 1.15812,2.28807 0.87036,4.23048 -0.8871,5.98794 -1.70178,1.70179 -4.19169,2.11261 -5.94713,0.98125 -0.56558,-0.36452 -0.65151,-0.35692 -0.96858,0.0857 -0.19137,0.26714 -3.02965,3.98934 -6.30728,8.27154 -5.92325,7.73868 -5.95704,7.79027 -5.57985,8.51967 0.82911,1.60333 0.25136,4.62331 -1.11371,5.82145 -2.21846,1.94719 -5.87611,1.64519 -7.59521,-0.62711 -0.71044,-0.93906 -1.30592,-2.80995 -1.17834,-3.70216 0.0753,-0.52627 -0.46808,-0.69935 -8.65096,-2.75582 -4.80219,-1.20685 -8.88303,-2.19772 -9.06853,-2.20192 -0.1855,-0.004 -0.44168,0.26696 -0.56928,0.60258 -0.34945,0.91913 -1.56657,2.26406 -2.4984,2.76077 -0.52476,0.27972 -1.47233,0.44594 -2.58535,0.45351 l -1.75697,0.012 -7.50688,9.93076 -7.50688,9.93075 0.5944,1.04946 c 2.40659,4.24902 -2.41593,9.15979 -6.81178,6.93643 z m 3.94963,-2.51354 c 1.27311,-1.04865 1.13876,-3.45476 -0.23248,-4.16386 -1.88815,-0.9764 -3.97519,0.13314 -3.97519,2.11334 0,2.01909 2.66758,3.31908 4.20767,2.05052 z m 49.49673,-21.90068 c 1.00857,-1.00795 0.91934,-2.59008 -0.20261,-3.59254 -0.47193,-0.42167 -1.14823,-0.76668 -1.50289,-0.76668 -2.23886,0 -3.54491,2.40393 -2.22069,4.08741 1.07601,1.36792 2.71583,1.48144 3.92619,0.27181 z M 162.987,168.14156 c 1.56428,-0.80892 1.62596,-3.27548 0.10681,-4.27087 -1.15314,-0.75557 -2.43041,-0.60652 -3.31831,0.38721 -2.00273,2.24145 0.51034,5.28049 3.2115,3.88366 z m 48.11282,-16.64737 c 1.46194,-0.756 1.76675,-2.60919 0.63368,-3.85278 -1.0063,-1.10447 -2.07351,-1.26323 -3.23261,-0.48091 -1.20519,0.81343 -1.54084,1.94052 -0.9492,3.18732 0.68209,1.43739 2.09967,1.8954 3.54813,1.14637 z m 1.28244,42.95156 c -9.22258,-0.76107 -16.62648,-3.9652 -18.45125,-7.98504 -1.48982,-3.28195 0.56027,-6.50413 5.69781,-8.95535 4.61713,-2.20293 9.84476,-3.20224 16.80104,-3.21168 11.34082,-0.0154 20.37563,3.22681 22.65962,8.13155 0.77509,1.66446 0.77509,2.31503 0,3.97949 -1.97118,4.23299 -9.01043,7.24474 -18.83508,8.0586 -3.51609,0.29127 -4.14663,0.28987 -7.87214,-0.0176 z m 0.0788,-24.97973 v -2.51355 h -7.01146 c -3.8563,0 -7.01146,-0.0686 -7.01146,-0.15239 0,-0.0838 0.54697,-0.8632 1.21548,-1.73198 l 1.21547,-1.57961 7.0099,0.0784 7.0099,0.0783 0.63817,0.74236 c 0.6034,0.70192 0.63817,0.92894 0.63817,4.16719 v 3.42483 h -1.85209 -1.85208 z m -36.58046,-4.08535 c -3.31159,-0.83524 -6.09964,-1.59718 -6.19566,-1.6932 -0.096,-0.096 5.32214,-0.17458 12.04035,-0.17458 6.71822,0 12.21494,0.10194 12.21494,0.22654 0,0.12459 -0.43231,0.79271 -0.96069,1.4847 -0.95565,1.25159 -0.96715,1.2573 -2.19875,1.09392 -0.79109,-0.10494 -1.70994,-0.0211 -2.54505,0.23223 -2.64553,0.80251 -5.67188,0.51602 -12.35514,-1.16961 z"
       id="path865"
       inkscape:connector-curvature="0"
       inkscape:export-filename="C:\Users\User\Documents\Backgroundideas\data.png"
       inkscape:export-xdpi="53.109936"
       inkscape:export-ydpi="53.109936" />
    <path
       style="fill:#ff6600;stroke-width:0.26458335;fill-opacity:1"
       d="m 118.48233,199.06452 v -1.98437 h -2.11666 -2.11667 v -11.24479 -11.2448 h 2.11667 2.11666 v -1.98437 c 0,-1.14653 0.11172,-1.98438 0.26459,-1.98438 0.15287,0 0.26458,0.83785 0.26458,1.98438 v 1.98437 h 2.11667 2.11666 v 11.2448 11.24479 h -2.11666 -2.11667 v 1.98437 c 0,1.14653 -0.11171,1.98438 -0.26458,1.98438 -0.15287,0 -0.26459,-0.83785 -0.26459,-1.98438 z M 99.961495,187.68744 v -1.98438 h -2.11667 -2.11666 v -11.24479 -11.24479 h 2.11666 2.11667 v -1.98437 c 0,-1.14653 0.111715,-1.98438 0.264585,-1.98438 0.15287,0 0.26459,0.83785 0.26459,1.98438 v 1.98437 h 2.11666 2.11667 v 11.24479 11.24479 h -2.11667 -2.11666 v 1.98438 c 0,1.14653 -0.11172,1.98437 -0.26459,1.98437 -0.15287,0 -0.264585,-0.83784 -0.264585,-1.98437 z m -18.52083,-11.24479 v -2.11667 h -2.11667 -2.11667 V 163.08119 151.8364 h 2.11667 2.11667 v -1.85209 c 0,-1.05833 0.11339,-1.85208 0.26458,-1.85208 0.15119,0 0.26458,0.79375 0.26458,1.85208 v 1.85209 h 2.11667 2.11667 v 11.24479 11.24479 h -2.11667 -2.11667 v 2.11667 c 0,1.23472 -0.11024,2.11666 -0.26458,2.11666 -0.15434,0 -0.26458,-0.88194 -0.26458,-2.11666 z"
       id="path880"
       inkscape:connector-curvature="0"
       inkscape:export-filename="C:\Users\User\Documents\Backgroundideas\candles.png"
       inkscape:export-xdpi="53.109936"
       inkscape:export-ydpi="53.109936" />
    <path
       style="fill:#ff6600;fill-opacity:1;stroke-width:0.26458332"
       d="m -138.24813,-71.711954 c -2.21078,-0.61773 -5.87912,-2.43882 -9.5377,-4.73482 -1.81202,-1.13716 -4.48521,-2.68988 -5.94042,-3.45048 l -2.64583,-1.38292 -2.38125,0.1872 c -1.30969,0.10296 -3.63141,0.0928 -5.15938,-0.0225 -15.5404,-1.17299 -26.50775,-13.38684 -28.71214,-31.975466 -2.07296,-17.48032 4.84457,-33.92394 17.07048,-40.5781 2.29192,-1.24741 6.75762,-2.70492 9.48705,-3.09637 3.46821,-0.49741 9.6314,-0.1926 12.7924,0.63266 11.87882,3.10128 20.47494,13.60692 23.09358,28.22352 0.60253,3.36319 0.82776,11.37637 0.41413,14.73398 -1.2644,10.26371 -5.02133,18.481106 -11.17239,24.436976 l -2.07651,2.01062 3.37618,1.98255 c 5.00976,2.94183 6.32753,3.40191 9.72618,3.39574 1.16417,-0.002 2.88612,-0.11505 3.82655,-0.25096 0.94044,-0.13592 1.73363,-0.22282 1.76263,-0.19312 0.029,0.0297 -0.79321,2.1567 -1.82716,4.72667 l -1.87991,4.67268 -1.33793,0.4544 c -1.88123,0.63892 -6.9424,0.76874 -8.87856,0.22773 z m -21.0479,-22.856 c 5.65982,-0.92682 9.21851,-5.984226 10.64119,-15.122676 0.63265,-4.06377 0.64149,-14.75365 0.0154,-18.61546 -0.56421,-3.48004 -1.60989,-7.0158 -2.65535,-8.97848 -1.17489,-2.20565 -3.27351,-4.38592 -5.12285,-5.32216 -1.45307,-0.73562 -1.72524,-0.78061 -4.7225,-0.78061 -3.05972,0 -3.24755,0.033 -4.94369,0.86798 -2.10237,1.03501 -3.69246,2.69677 -5.04706,5.27457 -2.18827,4.16428 -3.12613,9.63088 -3.1223,18.19911 0.004,8.97544 0.86017,13.83268 3.25304,18.45544 1.6796,3.244806 4.10984,5.200756 7.35203,5.917186 1.84741,0.40823 2.417,0.42198 4.3521,0.1051 z m 107.169784,22.82886 c -1.44408,-0.13257 -6.65171,-1.06569 -7.87136,-1.41041 -0.91837,-0.25957 -0.99194,-0.35332 -0.98893,-1.26018 0.004,-1.09808 0.76182,-9.90282 0.86131,-10.0023 0.0351,-0.0351 0.9895,0.15678 2.12095,0.42634 5.25233,1.25137 12.0344,1.36889 16.19678,0.28068 7.2155,-1.88643 12.39811,-6.60315 14.04244,-12.78014 0.47382,-1.77987 0.47832,-6.018206 0.008,-7.783546 -1.5254,-5.72899 -6.38844,-8.66016 -14.3153,-8.62846 -3.86207,0.0154 -6.80167,0.50982 -12.35235,2.07739 -1.8788,0.5306 -3.46385,0.91687 -3.52233,0.85839 -0.11452,-0.11452 3.51695,-44.14415 3.72255,-45.13382 l 0.12367,-0.59532 h 20.63982 20.63983 l -0.16322,1.65365 c -0.0898,0.90951 -0.36235,4.0349 -0.60574,6.94531 l -0.44251,5.29167 -12.49852,0.0687 c -10.26812,0.0565 -12.49842,0.13233 -12.49842,0.42512 0,0.19601 -0.36111,3.84217 -0.80247,8.10257 -0.44136,4.26041 -0.76878,7.77485 -0.7276,7.80986 0.0412,0.035 0.72971,-0.0317 1.53007,-0.14835 2.37368,-0.34583 6.91526,-0.27852 9.29191,0.1377 6.16423,1.07955 11.6069,4.16405 15.09688,8.55581 5.2052298,6.55023 6.4671898,15.48225 3.38185,23.936276 -4.72754,12.9538 -19.5404,21.55919 -36.6899,21.31466 -1.7156,-0.0245 -3.59553,-0.0882 -4.17761,-0.14164 z m -221.059364,-11.46407 c 0,-0.44124 1.48828,-16.71082 3.30729,-36.154606 1.81901,-19.44378 3.30729,-35.57431 3.30729,-35.84562 0,-0.47403 0.39991,-0.49059 10.24164,-0.42404 l 10.24165,0.0693 5.33366,21.16667 c 5.08777,20.19085 5.34743,21.11787 5.6323,20.10833 0.16426,-0.58209 2.57922,-10.13685 5.36659,-21.23281 l 5.06794,-20.17448 h 10.13466 10.13467 l 0.14344,0.8599 c 0.12411,0.74404 6.76601,71.698446 6.76141,72.231236 -0.001,0.10914 -3.741,0.19844 -8.31125,0.19844 h -8.30955 l -0.14857,-1.25677 c -0.0817,-0.69123 -0.63973,-9.94833 -1.24005,-20.571356 -0.60031,-10.62302 -1.1697,-19.52253 -1.26532,-19.77669 -0.10181,-0.27062 -2.43292,8.22631 -5.62556,20.50521 l -5.45171,20.967316 -7.5232,0.0701 -7.52321,0.0701 -5.54591,-21.347966 c -3.05026,-11.74139 -5.57515,-21.05981 -5.61087,-20.70761 -0.0926,0.91267 -2.44859,40.846916 -2.44859,41.503316 0,0.53786 -0.099,0.54433 -8.33438,0.54433 h -8.33437 z m 154.51665,-35.840816 v -36.64649 h 8.46667 8.46666 v 29.50105 29.501026 h 11.652704 11.6527 l -0.17128,1.91823 c -0.0942,1.05502 -0.36706,4.23995 -0.60635,7.0776 l -0.43506,5.15938 -19.51302,0.0679 -19.513024,0.0678 z"
       id="path893"
       inkscape:connector-curvature="0"
       inkscape:export-filename="C:\Users\User\Documents\Backgroundideas\logo_mql5.png"
       inkscape:export-xdpi="53.109936"
       inkscape:export-ydpi="53.109936" />
    <path
       style="fill:none;stroke:#ff6600;stroke-width:20.336;stroke-linecap:butt;stroke-linejoin:round;stroke-miterlimit:4;stroke-dasharray:none;stroke-opacity:1;paint-order:stroke fill markers;opacity:0.76"
       d="M -246.9505,-7.2063338 -34.820125,-226.80769 v 0"
       id="path903"
       inkscape:connector-curvature="0"
       inkscape:export-filename="C:\Users\User\Documents\Backgroundideas\logo_mql5.png"
       inkscape:export-xdpi="53.109936"
       inkscape:export-ydpi="53.109936" />
    <path
       style="fill:#ff6600;fill-opacity:1;stroke:#ff6600;stroke-width:9.93445873;stroke-linecap:butt;stroke-linejoin:round;stroke-miterlimit:4;stroke-dasharray:none;stroke-opacity:1;paint-order:stroke fill markers;opacity:0.82"
       d="M -143.25272,-267.91754 A 149.52184,149.52184 0 0 0 -292.77496,-118.39587 149.52184,149.52184 0 0 0 -143.25272,31.125796 149.52184,149.52184 0 0 0 6.2689466,-118.39587 149.52184,149.52184 0 0 0 -143.25272,-267.91754 Z m 0,7.97603 A 141.54548,141.54548 0 0 1 -1.7076582,-118.39587 141.54548,141.54548 0 0 1 -143.25272,23.149771 141.54548,141.54548 0 0 1 -284.79837,-118.39587 141.54548,141.54548 0 0 1 -143.25272,-259.94151 Z"
       id="path905"
       inkscape:connector-curvature="0"
       inkscape:export-filename="C:\Users\User\Documents\Backgroundideas\logo_mql5.png"
       inkscape:export-xdpi="53.109936"
       inkscape:export-ydpi="53.109936" />
    <g
       id="g979"
       transform="matrix(3.6585511,0,0,3.6585511,-17.319107,-340.86426)"
       style="fill:#ff6600;fill-opacity:1"
       inkscape:export-filename="C:\Users\User\Documents\Backgroundideas\money.png"
       inkscape:export-xdpi="53.109936"
       inkscape:export-ydpi="53.109936">
	<path
   id="path949"
   d="m 88.516,38.117 c 0,1.277 -5.435,2.313 -12.14,2.313 -6.705,0 -12.142,-1.036 -12.142,-2.313 0,-1.277 5.437,-2.312 12.142,-2.312 6.705,0 12.14,1.035 12.14,2.312"
   inkscape:connector-curvature="0"
   style="fill:#ff6600;fill-opacity:1" />

	<path
   id="path951"
   d="m 85.139,41.156 c -2.351,0.448 -5.462,0.694 -8.763,0.694 -3.3,0 -6.411,-0.246 -8.761,-0.694 C 66.05,40.858 64.939,40.5 64.236,40.053 v 3.167 c 0,1.277 5.435,2.312 12.14,2.312 6.706,0 12.142,-1.035 12.142,-2.312 v -3.167 c -0.705,0.447 -1.815,0.805 -3.379,1.103"
   inkscape:connector-curvature="0"
   style="fill:#ff6600;fill-opacity:1" />

	<path
   id="path953"
   d="m 85.139,46.299 c -2.351,0.448 -5.462,0.694 -8.763,0.694 -3.3,0 -6.411,-0.246 -8.761,-0.694 -1.565,-0.298 -2.676,-0.656 -3.379,-1.103 v 3.167 c 0,1.277 5.435,2.312 12.14,2.312 6.706,0 12.142,-1.035 12.142,-2.312 v -3.167 c -0.705,0.448 -1.815,0.805 -3.379,1.103"
   inkscape:connector-curvature="0"
   style="fill:#ff6600;fill-opacity:1" />

	<path
   id="path955"
   d="m 85.139,51.506 c -2.351,0.447 -5.462,0.694 -8.763,0.694 -3.3,0 -6.411,-0.247 -8.761,-0.694 -1.565,-0.298 -2.676,-0.656 -3.379,-1.103 v 3.166 c 0,1.279 5.435,2.313 12.14,2.313 6.706,0 12.142,-1.034 12.142,-2.313 v -3.166 c -0.705,0.447 -1.815,0.805 -3.379,1.103"
   inkscape:connector-curvature="0"
   style="fill:#ff6600;fill-opacity:1" />

	<path
   id="path957"
   d="m 85.139,56.752 c -2.351,0.448 -5.462,0.693 -8.763,0.693 -3.3,0 -6.411,-0.245 -8.761,-0.693 -1.565,-0.298 -2.676,-0.656 -3.379,-1.104 v 3.168 c 0,1.276 5.435,2.312 12.14,2.312 6.706,0 12.142,-1.035 12.142,-2.312 v -3.168 c -0.705,0.448 -1.815,0.806 -3.379,1.104"
   inkscape:connector-curvature="0"
   style="fill:#ff6600;fill-opacity:1" />

	<path
   id="path959"
   d="m 85.139,61.977 c -2.351,0.447 -5.462,0.694 -8.763,0.694 -3.3,0 -6.411,-0.247 -8.761,-0.694 -1.565,-0.297 -2.676,-0.656 -3.379,-1.103 v 3.166 c 0,1.278 5.435,2.313 12.14,2.313 6.706,0 12.142,-1.035 12.142,-2.313 v -3.166 c -0.705,0.444 -1.815,0.806 -3.379,1.103"
   inkscape:connector-curvature="0"
   style="fill:#ff6600;fill-opacity:1" />

	<path
   id="path961"
   d="m 85.139,67.115 c -2.351,0.447 -5.462,0.693 -8.763,0.693 -3.3,0 -6.411,-0.246 -8.761,-0.693 -1.565,-0.299 -2.676,-0.657 -3.379,-1.104 v 3.166 c 0,1.277 5.435,2.313 12.14,2.313 6.706,0 12.142,-1.036 12.142,-2.313 v -3.166 c -0.705,0.447 -1.815,0.805 -3.379,1.104"
   inkscape:connector-curvature="0"
   style="fill:#ff6600;fill-opacity:1" />

	<path
   id="path963"
   d="m 62.132,48.488 c 0,1.277 -5.435,2.313 -12.14,2.313 -6.705,0 -12.141,-1.036 -12.141,-2.313 0,-1.277 5.436,-2.313 12.141,-2.313 6.705,0 12.14,1.036 12.14,2.313"
   inkscape:connector-curvature="0"
   style="fill:#ff6600;fill-opacity:1" />

	<path
   id="path965"
   d="m 58.753,51.527 c -2.351,0.449 -5.461,0.695 -8.761,0.695 -3.301,0 -6.412,-0.246 -8.762,-0.695 -1.565,-0.297 -2.675,-0.655 -3.379,-1.103 v 3.166 c 0,1.277 5.435,2.312 12.141,2.312 6.705,0 12.14,-1.034 12.14,-2.312 v -3.166 c -0.704,0.449 -1.814,0.806 -3.379,1.103"
   inkscape:connector-curvature="0"
   style="fill:#ff6600;fill-opacity:1" />

	<path
   id="path967"
   d="m 58.753,56.671 c -2.351,0.448 -5.461,0.694 -8.761,0.694 -3.301,0 -6.412,-0.246 -8.762,-0.694 -1.565,-0.298 -2.675,-0.655 -3.379,-1.103 v 3.166 c 0,1.277 5.435,2.313 12.141,2.313 6.705,0 12.14,-1.035 12.14,-2.313 v -3.166 c -0.704,0.448 -1.814,0.805 -3.379,1.103"
   inkscape:connector-curvature="0"
   style="fill:#ff6600;fill-opacity:1" />

	<path
   id="path969"
   d="m 58.753,61.878 c -2.351,0.447 -5.461,0.694 -8.761,0.694 -3.301,0 -6.412,-0.247 -8.762,-0.694 -1.565,-0.298 -2.675,-0.657 -3.379,-1.104 v 3.168 c 0,1.276 5.435,2.313 12.141,2.313 6.705,0 12.14,-1.036 12.14,-2.313 v -3.168 c -0.704,0.447 -1.814,0.806 -3.379,1.104"
   inkscape:connector-curvature="0"
   style="fill:#ff6600;fill-opacity:1" />

	<path
   id="path971"
   d="m 58.753,67.124 c -2.351,0.448 -5.461,0.694 -8.761,0.694 -3.301,0 -6.412,-0.246 -8.762,-0.694 -1.565,-0.298 -2.675,-0.656 -3.379,-1.103 v 3.166 c 0,1.276 5.435,2.313 12.141,2.313 6.705,0 12.14,-1.036 12.14,-2.313 v -3.166 c -0.704,0.447 -1.814,0.805 -3.379,1.103"
   inkscape:connector-curvature="0"
   style="fill:#ff6600;fill-opacity:1" />

	<path
   id="path973"
   d="m 35.733,58.941 c 0,1.276 -5.435,2.313 -12.14,2.313 -6.705,0 -12.141,-1.036 -12.141,-2.313 0,-1.277 5.436,-2.313 12.141,-2.313 6.705,0 12.14,1.037 12.14,2.313"
   inkscape:connector-curvature="0"
   style="fill:#ff6600;fill-opacity:1" />

	<path
   id="path975"
   d="m 32.354,61.98 c -2.35,0.449 -5.461,0.694 -8.762,0.694 -3.3,0 -6.411,-0.245 -8.761,-0.694 -1.565,-0.297 -2.675,-0.655 -3.379,-1.103 v 3.167 c 0,1.277 5.436,2.313 12.14,2.313 6.705,0 12.141,-1.035 12.141,-2.313 v -3.167 c -0.704,0.448 -1.814,0.807 -3.379,1.103"
   inkscape:connector-curvature="0"
   style="fill:#ff6600;fill-opacity:1" />

	<path
   id="path977"
   d="m 32.354,67.124 c -2.35,0.448 -5.461,0.694 -8.762,0.694 -3.3,0 -6.411,-0.246 -8.761,-0.694 -1.565,-0.298 -2.675,-0.656 -3.379,-1.103 v 3.166 c 0,1.276 5.436,2.313 12.14,2.313 6.705,0 12.141,-1.036 12.141,-2.313 v -3.166 c -0.704,0.447 -1.814,0.805 -3.379,1.103"
   inkscape:connector-curvature="0"
   style="fill:#ff6600;fill-opacity:1" />

</g>
    <g
       id="g1118"
       transform="matrix(0.26458333,0,0,0.26458333,5.5940489,-313.50714)"
       style="fill:#ff6600;fill-opacity:1"
       inkscape:export-filename="C:\Users\User\Documents\Backgroundideas\control.png"
       inkscape:export-xdpi="53.109936"
       inkscape:export-ydpi="53.109936">
      <g
         id="g1059"
         style="fill:#ff6600;fill-opacity:1">
	<g
   id="g1057"
   style="fill:#ff6600;fill-opacity:1">
		<g
   id="g1055"
   style="fill:#ff6600;fill-opacity:1">
			<path
   id="path1051"
   d="M 405.333,66.389 V 21.333 C 405.333,9.536 395.797,0 384,0 372.203,0 362.667,9.536 362.667,21.333 v 44.843 c -48.619,10.048 -85.333,53.653 -85.333,105.813 0,50.859 36.715,93.419 85.333,103.211 v 215.467 c 0,11.797 9.536,21.333 21.333,21.333 11.797,0 21.333,-9.536 21.333,-21.333 V 275.179 c 48.619,-9.92 85.333,-53.013 85.333,-104.512 10e-4,-49.558 -37.951,-93.76 -85.333,-104.278 z m 0,125.611 h -42.667 c -11.797,0 -21.333,-9.536 -21.333,-21.333 0,-11.797 9.536,-21.333 21.333,-21.333 h 42.667 c 11.797,0 21.333,9.536 21.333,21.333 10e-4,11.797 -9.535,21.333 -21.333,21.333 z"
   inkscape:connector-curvature="0"
   style="fill:#ff6600;fill-opacity:1" />

			<path
   id="path1053"
   d="M 149.333,236.821 V 21.333 C 149.333,9.536 139.797,0 128,0 116.203,0 106.667,9.536 106.667,21.333 v 215.488 c -48.619,9.92 -85.333,53.013 -85.333,104.512 0,51.499 36.715,94.592 85.333,104.512 v 44.821 c 0,11.797 9.536,21.333 21.333,21.333 11.797,0 21.333,-9.536 21.333,-21.333 v -44.821 c 48.619,-9.92 85.333,-53.013 85.333,-104.512 0.001,-51.498 -36.714,-94.592 -85.333,-104.512 z m 0,125.846 h -42.667 c -11.797,0 -21.333,-9.536 -21.333,-21.333 0,-11.797 9.536,-21.333 21.333,-21.333 h 42.667 c 11.797,0 21.333,9.536 21.333,21.333 0.001,11.797 -9.535,21.333 -21.333,21.333 z"
   inkscape:connector-curvature="0"
   style="fill:#ff6600;fill-opacity:1" />

		</g>

	</g>

</g>
      <g
         id="g1061"
         style="fill:#ff6600;fill-opacity:1">
</g>
      <g
         id="g1063"
         style="fill:#ff6600;fill-opacity:1">
</g>
      <g
         id="g1065"
         style="fill:#ff6600;fill-opacity:1">
</g>
      <g
         id="g1067"
         style="fill:#ff6600;fill-opacity:1">
</g>
      <g
         id="g1069"
         style="fill:#ff6600;fill-opacity:1">
</g>
      <g
         id="g1071"
         style="fill:#ff6600;fill-opacity:1">
</g>
      <g
         id="g1073"
         style="fill:#ff6600;fill-opacity:1">
</g>
      <g
         id="g1075"
         style="fill:#ff6600;fill-opacity:1">
</g>
      <g
         id="g1077"
         style="fill:#ff6600;fill-opacity:1">
</g>
      <g
         id="g1079"
         style="fill:#ff6600;fill-opacity:1">
</g>
      <g
         id="g1081"
         style="fill:#ff6600;fill-opacity:1">
</g>
      <g
         id="g1083"
         style="fill:#ff6600;fill-opacity:1">
</g>
      <g
         id="g1085"
         style="fill:#ff6600;fill-opacity:1">
</g>
      <g
         id="g1087"
         style="fill:#ff6600;fill-opacity:1">
</g>
      <g
         id="g1089"
         style="fill:#ff6600;fill-opacity:1">
</g>
    </g>
    <path
       style="fill:#ff6600;stroke-width:0.32253993;fill-opacity:1"
       d="m -118.89028,-432.78896 c -0.38754,-0.1587 -0.85926,-0.57748 -1.04825,-0.93061 -0.23676,-0.4424 -0.34363,-10.97996 -0.34363,-33.88489 0,-18.28355 0.0593,-33.24282 0.13168,-33.24282 0.0724,0 4.58277,2.32809 10.023,5.17353 10.873764,5.68738 12.630184,6.34829 15.473994,5.82258 2.25201,-0.41631 3.11477,-0.87166 6.03022,-3.18269 1.30299,-1.03285 2.5505,-1.98825 2.77225,-2.12311 0.32143,-0.19548 0.40317,5.96397 0.40317,30.3794 0,29.66907 -0.0192,30.64835 -0.6164,31.38604 l -0.61641,0.76145 -15.752494,0.0648 c -8.69621,0.0358 -16.06813,-0.0644 -16.45713,-0.22371 z m 51.150324,-0.0338 c -0.46098,-0.17178 -1.00785,-0.63412 -1.21526,-1.02743 -0.28291,-0.5365 -0.35553,-9.97301 -0.29073,-37.78062 l 0.0864,-37.06552 8.78742,-7.05669 8.78741,-7.0567 8.54911,4.72671 8.5491,4.7267 v 39.74869 39.74869 l -0.6787,0.61443 c -0.64562,0.58449 -1.43558,0.61735 -16.20763,0.67424 -9.37969,0.0361 -15.86083,-0.0639 -16.36709,-0.2525 z m 54.04605,0.0471 c -1.6842,-0.68267 -1.59492,1.19754 -1.68788,-35.54451 -0.0642,-25.36548 0.008,-34.13975 0.28085,-34.13975 0.35424,0 12.2233098,6.41364 12.2233098,6.60506 0,0.0518 -0.96616,1.67119 -2.14703,3.59857 -2.59005,4.22739 -3.32029,5.77516 -3.32726,7.05226 -0.0202,3.6927 3.05703,6.9083 6.62937,6.92752 1.00190001,0.005 17.5346502,-3.72609 20.8582702,-4.70777 0.53403,-0.15773 0.56445,1.13705 0.56445,24.03034 0,17.39854 -0.10312,24.42336 -0.367,25.00253 -0.20185,0.443 -0.80408,0.95784 -1.33829,1.14406 -1.16732,0.40693 -30.69022,0.43646 -31.68879,0.0317 z m 13.31596981,-54.00625 c -1.09664001,-0.83247 -0.64263001,-2.04247 2.98348999,-7.95142 1.95137,-3.17985 3.54794,-5.9018 3.54794,-6.04877 0,-0.24446 -55.5112198,-31.02895 -55.9520398,-31.02895 -0.10571,0 -9.06795,7.14829 -19.91608,15.88509 -10.84812,8.7368 -20.38626,16.36875 -21.19584,16.95989 -1.33737,0.9765 -1.63422,1.06182 -3.24596,0.93299 -1.57938,-0.12624 -3.96611,-1.28784 -21.758624,-10.58975 -22.40016,-11.7108 -21.64014,-11.19875 -21.38269,-14.40614 0.10559,-1.31548 0.34322,-1.91624 1.04955,-2.6535 1.0867,-1.13427 2.7657,-1.7534 4.05545,-1.49545 0.51329,0.10266 9.17153,4.48541 19.24052,9.73944 16.266684,8.488 18.379434,9.50773 18.954714,9.14852 0.35609,-0.22234 9.42858,-7.46285 20.1611,-16.09001 10.73252,-8.62716 20.06536,-16.10104 20.73965,-16.60862 1.44196,-1.08545 3.36417,-1.20929 5.10262,-0.32874 0.5994,0.3036 14.13565,7.74525 30.08056,16.53698 27.6604798,15.25149 29.01193,15.95643 29.45216,15.36286 0.25378,-0.34216 1.9394,-3.04625 3.74584,-6.00907 3.50282,-5.74515 4.22577,-6.47321 5.55979,-5.59913 0.40825,0.26749 0.81926,0.74422 0.91336,1.05939 0.64479,2.15959 6.00609,25.13422 6.00609,25.73774 0,0.64445 -0.72891,1.76738 -1.14724,1.76738 -0.0735,0 -5.88228,1.37886 -12.9085,3.06413 -7.0262302,1.68527 -12.94291019,3.05951 -13.14819019,3.05387 -0.20528,-0.006 -0.62723,-0.20307 -0.93767,-0.43873 z"
       id="path1131"
       inkscape:connector-curvature="0"
       inkscape:export-filename="C:\Users\User\Documents\Backgroundideas\charting.png"
       inkscape:export-xdpi="53.109936"
       inkscape:export-ydpi="53.109936" />
  </g>
</svg>
